solid OpenSCAD_Model
  facet normal 0.998027 0.0627912 0
    outer loop
      vertex 65.5 150 0.0999994
      vertex 65.3778 151.943 0
      vertex 65.3778 151.943 0.0999994
    endloop
  endfacet
  facet normal 0.998027 0.0627912 0
    outer loop
      vertex 65.3778 151.943 0
      vertex 65.5 150 0.0999994
      vertex 65.5 150 0
    endloop
  endfacet
  facet normal -0.998027 0.0627912 0
    outer loop
      vertex 34.5 150 0
      vertex 34.6222 151.943 0.0999994
      vertex 34.6222 151.943 0
    endloop
  endfacet
  facet normal -0.998027 0.0627912 0
    outer loop
      vertex 34.6222 151.943 0.0999994
      vertex 34.5 150 0
      vertex 34.5 150 0.0999994
    endloop
  endfacet
  facet normal 0 1 -0
    outer loop
      vertex 50.9733 165.469 0
      vertex 49.0267 165.469 0.0999994
      vertex 50.9733 165.469 0.0999994
    endloop
  endfacet
  facet normal 0 1 0
    outer loop
      vertex 49.0267 165.469 0.0999994
      vertex 50.9733 165.469 0
      vertex 49.0267 165.469 0
    endloop
  endfacet
  facet normal 0 -1 0
    outer loop
      vertex 49.0267 134.531 0
      vertex 50.9733 134.531 0.0999994
      vertex 49.0267 134.531 0.0999994
    endloop
  endfacet
  facet normal 0 -1 -0
    outer loop
      vertex 50.9733 134.531 0.0999994
      vertex 49.0267 134.531 0
      vertex 50.9733 134.531 0
    endloop
  endfacet
  facet normal 0.684552 0.728964 -0
    outer loop
      vertex 61.299 160.61 0
      vertex 59.8801 161.943 0.0999994
      vertex 61.299 160.61 0.0999994
    endloop
  endfacet
  facet normal 0.684552 0.728964 0
    outer loop
      vertex 59.8801 161.943 0.0999994
      vertex 61.299 160.61 0
      vertex 59.8801 161.943 0
    endloop
  endfacet
  facet normal -0.684552 0.728964 0
    outer loop
      vertex 40.1199 161.943 0
      vertex 38.701 160.61 0.0999994
      vertex 40.1199 161.943 0.0999994
    endloop
  endfacet
  facet normal -0.684552 0.728964 0
    outer loop
      vertex 38.701 160.61 0.0999994
      vertex 40.1199 161.943 0
      vertex 38.701 160.61 0
    endloop
  endfacet
  facet normal -0.36813 0.929774 0
    outer loop
      vertex 45.2102 164.741 0
      vertex 43.4004 164.025 0.0999994
      vertex 45.2102 164.741 0.0999994
    endloop
  endfacet
  facet normal -0.36813 0.929774 0
    outer loop
      vertex 43.4004 164.025 0.0999994
      vertex 45.2102 164.741 0
      vertex 43.4004 164.025 0
    endloop
  endfacet
  facet normal 0.904826 0.425782 0
    outer loop
      vertex 64.4115 155.706 0.0999994
      vertex 63.5828 157.467 0
      vertex 63.5828 157.467 0.0999994
    endloop
  endfacet
  facet normal 0.904826 0.425782 0
    outer loop
      vertex 63.5828 157.467 0
      vertex 64.4115 155.706 0.0999994
      vertex 64.4115 155.706 0
    endloop
  endfacet
  facet normal 0.844329 0.535825 0
    outer loop
      vertex 63.5828 157.467 0.0999994
      vertex 62.5398 159.111 0
      vertex 62.5398 159.111 0.0999994
    endloop
  endfacet
  facet normal 0.844329 0.535825 0
    outer loop
      vertex 62.5398 159.111 0
      vertex 63.5828 157.467 0.0999994
      vertex 63.5828 157.467 0
    endloop
  endfacet
  facet normal 0.36813 0.929774 -0
    outer loop
      vertex 56.5996 164.025 0
      vertex 54.7898 164.741 0.0999994
      vertex 56.5996 164.025 0.0999994
    endloop
  endfacet
  facet normal 0.36813 0.929774 0
    outer loop
      vertex 54.7898 164.741 0.0999994
      vertex 56.5996 164.025 0
      vertex 54.7898 164.741 0
    endloop
  endfacet
  facet normal 0.481751 0.876308 -0
    outer loop
      vertex 58.3053 163.087 0
      vertex 56.5996 164.025 0.0999994
      vertex 58.3053 163.087 0.0999994
    endloop
  endfacet
  facet normal 0.481751 0.876308 0
    outer loop
      vertex 56.5996 164.025 0.0999994
      vertex 58.3053 163.087 0
      vertex 56.5996 164.025 0
    endloop
  endfacet
  facet normal -0.904826 0.425782 0
    outer loop
      vertex 35.5885 155.706 0
      vertex 36.4172 157.467 0.0999994
      vertex 36.4172 157.467 0
    endloop
  endfacet
  facet normal -0.904826 0.425782 0
    outer loop
      vertex 36.4172 157.467 0.0999994
      vertex 35.5885 155.706 0
      vertex 35.5885 155.706 0.0999994
    endloop
  endfacet
  facet normal -0.951057 0.309015 0
    outer loop
      vertex 34.987 153.855 0
      vertex 35.5885 155.706 0.0999994
      vertex 35.5885 155.706 0
    endloop
  endfacet
  facet normal -0.951057 0.309015 0
    outer loop
      vertex 35.5885 155.706 0.0999994
      vertex 34.987 153.855 0
      vertex 34.987 153.855 0.0999994
    endloop
  endfacet
  facet normal -0.248687 0.968584 0
    outer loop
      vertex 47.0956 165.225 0
      vertex 45.2102 164.741 0.0999994
      vertex 47.0956 165.225 0.0999994
    endloop
  endfacet
  facet normal -0.248687 0.968584 0
    outer loop
      vertex 45.2102 164.741 0.0999994
      vertex 47.0956 165.225 0
      vertex 45.2102 164.741 0
    endloop
  endfacet
  facet normal 0.125339 -0.992114 0
    outer loop
      vertex 50.9733 134.531 0
      vertex 52.9044 134.775 0.0999994
      vertex 50.9733 134.531 0.0999994
    endloop
  endfacet
  facet normal 0.125339 -0.992114 0
    outer loop
      vertex 52.9044 134.775 0.0999994
      vertex 50.9733 134.531 0
      vertex 52.9044 134.775 0
    endloop
  endfacet
  facet normal 0.982287 -0.187381 0
    outer loop
      vertex 65.013 146.145 0.0999994
      vertex 65.3778 148.057 0
      vertex 65.3778 148.057 0.0999994
    endloop
  endfacet
  facet normal 0.982287 -0.187381 0
    outer loop
      vertex 65.3778 148.057 0
      vertex 65.013 146.145 0.0999994
      vertex 65.013 146.145 0
    endloop
  endfacet
  facet normal 0.951057 0.309015 0
    outer loop
      vertex 65.013 153.855 0.0999994
      vertex 64.4115 155.706 0
      vertex 64.4115 155.706 0.0999994
    endloop
  endfacet
  facet normal 0.951057 0.309015 0
    outer loop
      vertex 64.4115 155.706 0
      vertex 65.013 153.855 0.0999994
      vertex 65.013 153.855 0
    endloop
  endfacet
  facet normal 0.982287 0.187381 0
    outer loop
      vertex 65.3778 151.943 0.0999994
      vertex 65.013 153.855 0
      vertex 65.013 153.855 0.0999994
    endloop
  endfacet
  facet normal 0.982287 0.187381 0
    outer loop
      vertex 65.013 153.855 0
      vertex 65.3778 151.943 0.0999994
      vertex 65.3778 151.943 0
    endloop
  endfacet
  facet normal 0.770511 0.637427 0
    outer loop
      vertex 62.5398 159.111 0.0999994
      vertex 61.299 160.61 0
      vertex 61.299 160.61 0.0999994
    endloop
  endfacet
  facet normal 0.770511 0.637427 0
    outer loop
      vertex 61.299 160.61 0
      vertex 62.5398 159.111 0.0999994
      vertex 62.5398 159.111 0
    endloop
  endfacet
  facet normal 0.248687 0.968584 -0
    outer loop
      vertex 54.7898 164.741 0
      vertex 52.9044 165.225 0.0999994
      vertex 54.7898 164.741 0.0999994
    endloop
  endfacet
  facet normal 0.248687 0.968584 0
    outer loop
      vertex 52.9044 165.225 0.0999994
      vertex 54.7898 164.741 0
      vertex 52.9044 165.225 0
    endloop
  endfacet
  facet normal 0.125339 0.992114 -0
    outer loop
      vertex 52.9044 165.225 0
      vertex 50.9733 165.469 0.0999994
      vertex 52.9044 165.225 0.0999994
    endloop
  endfacet
  facet normal 0.125339 0.992114 0
    outer loop
      vertex 50.9733 165.469 0.0999994
      vertex 52.9044 165.225 0
      vertex 50.9733 165.469 0
    endloop
  endfacet
  facet normal 0.587781 0.80902 -0
    outer loop
      vertex 59.8801 161.943 0
      vertex 58.3053 163.087 0.0999994
      vertex 59.8801 161.943 0.0999994
    endloop
  endfacet
  facet normal 0.587781 0.80902 0
    outer loop
      vertex 58.3053 163.087 0.0999994
      vertex 59.8801 161.943 0
      vertex 58.3053 163.087 0
    endloop
  endfacet
  facet normal -0.844329 0.535825 0
    outer loop
      vertex 36.4172 157.467 0
      vertex 37.4602 159.111 0.0999994
      vertex 37.4602 159.111 0
    endloop
  endfacet
  facet normal -0.844329 0.535825 0
    outer loop
      vertex 37.4602 159.111 0.0999994
      vertex 36.4172 157.467 0
      vertex 36.4172 157.467 0.0999994
    endloop
  endfacet
  facet normal -0.770511 0.637427 0
    outer loop
      vertex 37.4602 159.111 0
      vertex 38.701 160.61 0.0999994
      vertex 38.701 160.61 0
    endloop
  endfacet
  facet normal -0.770511 0.637427 0
    outer loop
      vertex 38.701 160.61 0.0999994
      vertex 37.4602 159.111 0
      vertex 37.4602 159.111 0.0999994
    endloop
  endfacet
  facet normal -0.982287 0.187381 0
    outer loop
      vertex 34.6222 151.943 0
      vertex 34.987 153.855 0.0999994
      vertex 34.987 153.855 0
    endloop
  endfacet
  facet normal -0.982287 0.187381 0
    outer loop
      vertex 34.987 153.855 0.0999994
      vertex 34.6222 151.943 0
      vertex 34.6222 151.943 0.0999994
    endloop
  endfacet
  facet normal 0 0 1
    outer loop
      vertex 64.5 150 0.0999994
      vertex 65.5 150 0.0999994
      vertex 65.3778 151.943 0.0999994
    endloop
  endfacet
  facet normal 0 0 1
    outer loop
      vertex 64.3857 151.817 0.0999994
      vertex 65.3778 151.943 0.0999994
      vertex 65.013 153.855 0.0999994
    endloop
  endfacet
  facet normal 0 0 1
    outer loop
      vertex 65.5 150 0.0999994
      vertex 64.5 150 0.0999994
      vertex 65.3778 148.057 0.0999994
    endloop
  endfacet
  facet normal -0 0 1
    outer loop
      vertex 64.3857 148.183 0.0999994
      vertex 65.3778 148.057 0.0999994
      vertex 64.5 150 0.0999994
    endloop
  endfacet
  facet normal 0 0 1
    outer loop
      vertex 64.0445 153.606 0.0999994
      vertex 65.013 153.855 0.0999994
      vertex 64.4115 155.706 0.0999994
    endloop
  endfacet
  facet normal 0 0 1
    outer loop
      vertex 65.3778 151.943 0.0999994
      vertex 64.3857 151.817 0.0999994
      vertex 64.5 150 0.0999994
    endloop
  endfacet
  facet normal 0 0 1
    outer loop
      vertex 65.013 153.855 0.0999994
      vertex 64.0445 153.606 0.0999994
      vertex 64.3857 151.817 0.0999994
    endloop
  endfacet
  facet normal 0 0 1
    outer loop
      vertex 63.4818 155.338 0.0999994
      vertex 64.4115 155.706 0.0999994
      vertex 63.5828 157.467 0.0999994
    endloop
  endfacet
  facet normal 0 0 1
    outer loop
      vertex 64.4115 155.706 0.0999994
      vertex 63.4818 155.338 0.0999994
      vertex 64.0445 153.606 0.0999994
    endloop
  endfacet
  facet normal 0 0 1
    outer loop
      vertex 63.5828 157.467 0.0999994
      vertex 62.7064 156.985 0.0999994
      vertex 63.4818 155.338 0.0999994
    endloop
  endfacet
  facet normal 0 0 1
    outer loop
      vertex 62.5398 159.111 0.0999994
      vertex 62.7064 156.985 0.0999994
      vertex 63.5828 157.467 0.0999994
    endloop
  endfacet
  facet normal 0 0 1
    outer loop
      vertex 62.5398 159.111 0.0999994
      vertex 61.7307 158.523 0.0999994
      vertex 62.7064 156.985 0.0999994
    endloop
  endfacet
  facet normal 0 0 1
    outer loop
      vertex 61.299 160.61 0.0999994
      vertex 61.7307 158.523 0.0999994
      vertex 62.5398 159.111 0.0999994
    endloop
  endfacet
  facet normal 0 0 1
    outer loop
      vertex 61.299 160.61 0.0999994
      vertex 60.57 159.926 0.0999994
      vertex 61.7307 158.523 0.0999994
    endloop
  endfacet
  facet normal 0 0 1
    outer loop
      vertex 59.8801 161.943 0.0999994
      vertex 60.57 159.926 0.0999994
      vertex 61.299 160.61 0.0999994
    endloop
  endfacet
  facet normal 0 0 1
    outer loop
      vertex 59.8801 161.943 0.0999994
      vertex 59.2426 161.172 0.0999994
      vertex 60.57 159.926 0.0999994
    endloop
  endfacet
  facet normal 0 0 1
    outer loop
      vertex 58.3053 163.087 0.0999994
      vertex 59.2426 161.172 0.0999994
      vertex 59.8801 161.943 0.0999994
    endloop
  endfacet
  facet normal 0 0 1
    outer loop
      vertex 58.3053 163.087 0.0999994
      vertex 57.7695 162.243 0.0999994
      vertex 59.2426 161.172 0.0999994
    endloop
  endfacet
  facet normal 0 0 1
    outer loop
      vertex 56.5996 164.025 0.0999994
      vertex 57.7695 162.243 0.0999994
      vertex 58.3053 163.087 0.0999994
    endloop
  endfacet
  facet normal 0 0 1
    outer loop
      vertex 56.5996 164.025 0.0999994
      vertex 56.1738 163.12 0.0999994
      vertex 57.7695 162.243 0.0999994
    endloop
  endfacet
  facet normal 0 0 1
    outer loop
      vertex 54.7898 164.741 0.0999994
      vertex 56.1738 163.12 0.0999994
      vertex 56.5996 164.025 0.0999994
    endloop
  endfacet
  facet normal 0 0 1
    outer loop
      vertex 54.7898 164.741 0.0999994
      vertex 54.4807 163.79 0.0999994
      vertex 56.1738 163.12 0.0999994
    endloop
  endfacet
  facet normal 0 0 1
    outer loop
      vertex 52.9044 165.225 0.0999994
      vertex 54.4807 163.79 0.0999994
      vertex 54.7898 164.741 0.0999994
    endloop
  endfacet
  facet normal 0 0 1
    outer loop
      vertex 52.9044 165.225 0.0999994
      vertex 52.717 164.243 0.0999994
      vertex 54.4807 163.79 0.0999994
    endloop
  endfacet
  facet normal 0 0 1
    outer loop
      vertex 50.9733 165.469 0.0999994
      vertex 52.717 164.243 0.0999994
      vertex 52.9044 165.225 0.0999994
    endloop
  endfacet
  facet normal 0 0 1
    outer loop
      vertex 50.9733 165.469 0.0999994
      vertex 50.9105 164.471 0.0999994
      vertex 52.717 164.243 0.0999994
    endloop
  endfacet
  facet normal 0 0 1
    outer loop
      vertex 50.9733 165.469 0.0999994
      vertex 49.0895 164.471 0.0999994
      vertex 50.9105 164.471 0.0999994
    endloop
  endfacet
  facet normal -0 0 1
    outer loop
      vertex 49.0267 165.469 0.0999994
      vertex 49.0895 164.471 0.0999994
      vertex 50.9733 165.469 0.0999994
    endloop
  endfacet
  facet normal 0 0 1
    outer loop
      vertex 49.0267 165.469 0.0999994
      vertex 47.283 164.243 0.0999994
      vertex 49.0895 164.471 0.0999994
    endloop
  endfacet
  facet normal -0 0 1
    outer loop
      vertex 47.0956 165.225 0.0999994
      vertex 47.283 164.243 0.0999994
      vertex 49.0267 165.469 0.0999994
    endloop
  endfacet
  facet normal 0 0 1
    outer loop
      vertex 47.0956 165.225 0.0999994
      vertex 45.5193 163.79 0.0999994
      vertex 47.283 164.243 0.0999994
    endloop
  endfacet
  facet normal -0 0 1
    outer loop
      vertex 45.2102 164.741 0.0999994
      vertex 45.5193 163.79 0.0999994
      vertex 47.0956 165.225 0.0999994
    endloop
  endfacet
  facet normal 0 0 1
    outer loop
      vertex 45.2102 164.741 0.0999994
      vertex 43.8262 163.12 0.0999994
      vertex 45.5193 163.79 0.0999994
    endloop
  endfacet
  facet normal -0 0 1
    outer loop
      vertex 43.4004 164.025 0.0999994
      vertex 43.8262 163.12 0.0999994
      vertex 45.2102 164.741 0.0999994
    endloop
  endfacet
  facet normal 0 0 1
    outer loop
      vertex 43.4004 164.025 0.0999994
      vertex 42.2305 162.243 0.0999994
      vertex 43.8262 163.12 0.0999994
    endloop
  endfacet
  facet normal -0 0 1
    outer loop
      vertex 41.6947 163.087 0.0999994
      vertex 42.2305 162.243 0.0999994
      vertex 43.4004 164.025 0.0999994
    endloop
  endfacet
  facet normal 0 0 1
    outer loop
      vertex 41.6947 163.087 0.0999994
      vertex 40.7574 161.172 0.0999994
      vertex 42.2305 162.243 0.0999994
    endloop
  endfacet
  facet normal -0 0 1
    outer loop
      vertex 40.1199 161.943 0.0999994
      vertex 40.7574 161.172 0.0999994
      vertex 41.6947 163.087 0.0999994
    endloop
  endfacet
  facet normal 0 0 1
    outer loop
      vertex 40.1199 161.943 0.0999994
      vertex 39.43 159.926 0.0999994
      vertex 40.7574 161.172 0.0999994
    endloop
  endfacet
  facet normal -0 0 1
    outer loop
      vertex 38.701 160.61 0.0999994
      vertex 39.43 159.926 0.0999994
      vertex 40.1199 161.943 0.0999994
    endloop
  endfacet
  facet normal 0 0 1
    outer loop
      vertex 38.701 160.61 0.0999994
      vertex 38.2693 158.523 0.0999994
      vertex 39.43 159.926 0.0999994
    endloop
  endfacet
  facet normal -0 0 1
    outer loop
      vertex 37.4602 159.111 0.0999994
      vertex 38.2693 158.523 0.0999994
      vertex 38.701 160.61 0.0999994
    endloop
  endfacet
  facet normal 0 0 1
    outer loop
      vertex 37.4602 159.111 0.0999994
      vertex 37.2936 156.985 0.0999994
      vertex 38.2693 158.523 0.0999994
    endloop
  endfacet
  facet normal -0 0 1
    outer loop
      vertex 36.4172 157.467 0.0999994
      vertex 37.2936 156.985 0.0999994
      vertex 37.4602 159.111 0.0999994
    endloop
  endfacet
  facet normal 0 0 1
    outer loop
      vertex 37.2936 156.985 0.0999994
      vertex 36.4172 157.467 0.0999994
      vertex 36.5182 155.338 0.0999994
    endloop
  endfacet
  facet normal -0 0 1
    outer loop
      vertex 35.5885 155.706 0.0999994
      vertex 36.5182 155.338 0.0999994
      vertex 36.4172 157.467 0.0999994
    endloop
  endfacet
  facet normal 0 0 1
    outer loop
      vertex 36.5182 155.338 0.0999994
      vertex 35.5885 155.706 0.0999994
      vertex 35.9555 153.606 0.0999994
    endloop
  endfacet
  facet normal -0 0 1
    outer loop
      vertex 34.987 153.855 0.0999994
      vertex 35.9555 153.606 0.0999994
      vertex 35.5885 155.706 0.0999994
    endloop
  endfacet
  facet normal 0 0 1
    outer loop
      vertex 35.9555 153.606 0.0999994
      vertex 34.987 153.855 0.0999994
      vertex 35.6143 151.817 0.0999994
    endloop
  endfacet
  facet normal -0 0 1
    outer loop
      vertex 34.6222 151.943 0.0999994
      vertex 35.6143 151.817 0.0999994
      vertex 34.987 153.855 0.0999994
    endloop
  endfacet
  facet normal 0 0 1
    outer loop
      vertex 65.3778 148.057 0.0999994
      vertex 64.3857 148.183 0.0999994
      vertex 65.013 146.145 0.0999994
    endloop
  endfacet
  facet normal -0 0 1
    outer loop
      vertex 64.0445 146.394 0.0999994
      vertex 65.013 146.145 0.0999994
      vertex 64.3857 148.183 0.0999994
    endloop
  endfacet
  facet normal 0 0 1
    outer loop
      vertex 65.013 146.145 0.0999994
      vertex 64.0445 146.394 0.0999994
      vertex 64.4115 144.294 0.0999994
    endloop
  endfacet
  facet normal -0 0 1
    outer loop
      vertex 63.4818 144.662 0.0999994
      vertex 64.4115 144.294 0.0999994
      vertex 64.0445 146.394 0.0999994
    endloop
  endfacet
  facet normal 0 0 1
    outer loop
      vertex 64.4115 144.294 0.0999994
      vertex 63.4818 144.662 0.0999994
      vertex 63.5828 142.533 0.0999994
    endloop
  endfacet
  facet normal -0 0 1
    outer loop
      vertex 62.7064 143.015 0.0999994
      vertex 63.5828 142.533 0.0999994
      vertex 63.4818 144.662 0.0999994
    endloop
  endfacet
  facet normal 0 0 1
    outer loop
      vertex 62.7064 143.015 0.0999994
      vertex 62.5398 140.889 0.0999994
      vertex 63.5828 142.533 0.0999994
    endloop
  endfacet
  facet normal -0 0 1
    outer loop
      vertex 61.7307 141.477 0.0999994
      vertex 62.5398 140.889 0.0999994
      vertex 62.7064 143.015 0.0999994
    endloop
  endfacet
  facet normal 0 0 1
    outer loop
      vertex 61.7307 141.477 0.0999994
      vertex 61.299 139.39 0.0999994
      vertex 62.5398 140.889 0.0999994
    endloop
  endfacet
  facet normal -0 0 1
    outer loop
      vertex 60.57 140.074 0.0999994
      vertex 61.299 139.39 0.0999994
      vertex 61.7307 141.477 0.0999994
    endloop
  endfacet
  facet normal 0 0 1
    outer loop
      vertex 60.57 140.074 0.0999994
      vertex 59.8801 138.057 0.0999994
      vertex 61.299 139.39 0.0999994
    endloop
  endfacet
  facet normal -0 0 1
    outer loop
      vertex 59.2426 138.828 0.0999994
      vertex 59.8801 138.057 0.0999994
      vertex 60.57 140.074 0.0999994
    endloop
  endfacet
  facet normal 0 0 1
    outer loop
      vertex 59.2426 138.828 0.0999994
      vertex 58.3053 136.913 0.0999994
      vertex 59.8801 138.057 0.0999994
    endloop
  endfacet
  facet normal -0 0 1
    outer loop
      vertex 57.7695 137.757 0.0999994
      vertex 58.3053 136.913 0.0999994
      vertex 59.2426 138.828 0.0999994
    endloop
  endfacet
  facet normal 0 0 1
    outer loop
      vertex 57.7695 137.757 0.0999994
      vertex 56.5996 135.975 0.0999994
      vertex 58.3053 136.913 0.0999994
    endloop
  endfacet
  facet normal -0 0 1
    outer loop
      vertex 56.1738 136.88 0.0999994
      vertex 56.5996 135.975 0.0999994
      vertex 57.7695 137.757 0.0999994
    endloop
  endfacet
  facet normal 0 0 1
    outer loop
      vertex 56.1738 136.88 0.0999994
      vertex 54.7898 135.259 0.0999994
      vertex 56.5996 135.975 0.0999994
    endloop
  endfacet
  facet normal -0 0 1
    outer loop
      vertex 54.4807 136.21 0.0999994
      vertex 54.7898 135.259 0.0999994
      vertex 56.1738 136.88 0.0999994
    endloop
  endfacet
  facet normal 0 0 1
    outer loop
      vertex 54.4807 136.21 0.0999994
      vertex 52.9044 134.775 0.0999994
      vertex 54.7898 135.259 0.0999994
    endloop
  endfacet
  facet normal -0 0 1
    outer loop
      vertex 52.717 135.757 0.0999994
      vertex 52.9044 134.775 0.0999994
      vertex 54.4807 136.21 0.0999994
    endloop
  endfacet
  facet normal 0 0 1
    outer loop
      vertex 52.717 135.757 0.0999994
      vertex 50.9733 134.531 0.0999994
      vertex 52.9044 134.775 0.0999994
    endloop
  endfacet
  facet normal -0 0 1
    outer loop
      vertex 50.9105 135.529 0.0999994
      vertex 50.9733 134.531 0.0999994
      vertex 52.717 135.757 0.0999994
    endloop
  endfacet
  facet normal -0 0 1
    outer loop
      vertex 49.0895 135.529 0.0999994
      vertex 50.9733 134.531 0.0999994
      vertex 50.9105 135.529 0.0999994
    endloop
  endfacet
  facet normal 0 0 1
    outer loop
      vertex 49.0895 135.529 0.0999994
      vertex 49.0267 134.531 0.0999994
      vertex 50.9733 134.531 0.0999994
    endloop
  endfacet
  facet normal 0 0 1
    outer loop
      vertex 47.283 135.757 0.0999994
      vertex 49.0267 134.531 0.0999994
      vertex 49.0895 135.529 0.0999994
    endloop
  endfacet
  facet normal 0 0 1
    outer loop
      vertex 47.283 135.757 0.0999994
      vertex 47.0956 134.775 0.0999994
      vertex 49.0267 134.531 0.0999994
    endloop
  endfacet
  facet normal 0 0 1
    outer loop
      vertex 45.5193 136.21 0.0999994
      vertex 47.0956 134.775 0.0999994
      vertex 47.283 135.757 0.0999994
    endloop
  endfacet
  facet normal 0 0 1
    outer loop
      vertex 45.5193 136.21 0.0999994
      vertex 45.2102 135.259 0.0999994
      vertex 47.0956 134.775 0.0999994
    endloop
  endfacet
  facet normal 0 0 1
    outer loop
      vertex 43.8262 136.88 0.0999994
      vertex 45.2102 135.259 0.0999994
      vertex 45.5193 136.21 0.0999994
    endloop
  endfacet
  facet normal 0 0 1
    outer loop
      vertex 43.8262 136.88 0.0999994
      vertex 43.4004 135.975 0.0999994
      vertex 45.2102 135.259 0.0999994
    endloop
  endfacet
  facet normal 0 0 1
    outer loop
      vertex 42.2305 137.757 0.0999994
      vertex 43.4004 135.975 0.0999994
      vertex 43.8262 136.88 0.0999994
    endloop
  endfacet
  facet normal 0 0 1
    outer loop
      vertex 42.2305 137.757 0.0999994
      vertex 41.6947 136.913 0.0999994
      vertex 43.4004 135.975 0.0999994
    endloop
  endfacet
  facet normal 0 0 1
    outer loop
      vertex 40.7574 138.828 0.0999994
      vertex 41.6947 136.913 0.0999994
      vertex 42.2305 137.757 0.0999994
    endloop
  endfacet
  facet normal 0 0 1
    outer loop
      vertex 40.7574 138.828 0.0999994
      vertex 40.1199 138.057 0.0999994
      vertex 41.6947 136.913 0.0999994
    endloop
  endfacet
  facet normal 0 0 1
    outer loop
      vertex 39.43 140.074 0.0999994
      vertex 40.1199 138.057 0.0999994
      vertex 40.7574 138.828 0.0999994
    endloop
  endfacet
  facet normal 0 0 1
    outer loop
      vertex 39.43 140.074 0.0999994
      vertex 38.701 139.39 0.0999994
      vertex 40.1199 138.057 0.0999994
    endloop
  endfacet
  facet normal 0 0 1
    outer loop
      vertex 38.2693 141.477 0.0999994
      vertex 38.701 139.39 0.0999994
      vertex 39.43 140.074 0.0999994
    endloop
  endfacet
  facet normal 0 0 1
    outer loop
      vertex 38.2693 141.477 0.0999994
      vertex 37.4602 140.889 0.0999994
      vertex 38.701 139.39 0.0999994
    endloop
  endfacet
  facet normal 0 0 1
    outer loop
      vertex 37.2936 143.015 0.0999994
      vertex 37.4602 140.889 0.0999994
      vertex 38.2693 141.477 0.0999994
    endloop
  endfacet
  facet normal 0 0 1
    outer loop
      vertex 36.4172 142.533 0.0999994
      vertex 37.2936 143.015 0.0999994
      vertex 36.5182 144.662 0.0999994
    endloop
  endfacet
  facet normal 0 0 1
    outer loop
      vertex 37.2936 143.015 0.0999994
      vertex 36.4172 142.533 0.0999994
      vertex 37.4602 140.889 0.0999994
    endloop
  endfacet
  facet normal 0 0 1
    outer loop
      vertex 35.5885 144.294 0.0999994
      vertex 36.5182 144.662 0.0999994
      vertex 35.9555 146.394 0.0999994
    endloop
  endfacet
  facet normal 0 0 1
    outer loop
      vertex 34.987 146.145 0.0999994
      vertex 35.9555 146.394 0.0999994
      vertex 35.6143 148.183 0.0999994
    endloop
  endfacet
  facet normal 0 0 1
    outer loop
      vertex 36.5182 144.662 0.0999994
      vertex 35.5885 144.294 0.0999994
      vertex 36.4172 142.533 0.0999994
    endloop
  endfacet
  facet normal 0 0 1
    outer loop
      vertex 34.6222 148.057 0.0999994
      vertex 35.6143 148.183 0.0999994
      vertex 35.5 150 0.0999994
    endloop
  endfacet
  facet normal 0 0 1
    outer loop
      vertex 35.6143 151.817 0.0999994
      vertex 34.6222 151.943 0.0999994
      vertex 35.5 150 0.0999994
    endloop
  endfacet
  facet normal 0 0 1
    outer loop
      vertex 35.9555 146.394 0.0999994
      vertex 34.987 146.145 0.0999994
      vertex 35.5885 144.294 0.0999994
    endloop
  endfacet
  facet normal 0 0 1
    outer loop
      vertex 34.5 150 0.0999994
      vertex 35.5 150 0.0999994
      vertex 34.6222 151.943 0.0999994
    endloop
  endfacet
  facet normal 0 0 1
    outer loop
      vertex 35.6143 148.183 0.0999994
      vertex 34.6222 148.057 0.0999994
      vertex 34.987 146.145 0.0999994
    endloop
  endfacet
  facet normal 0 0 1
    outer loop
      vertex 35.5 150 0.0999994
      vertex 34.5 150 0.0999994
      vertex 34.6222 148.057 0.0999994
    endloop
  endfacet
  facet normal -0.481751 0.876308 0
    outer loop
      vertex 43.4004 164.025 0
      vertex 41.6947 163.087 0.0999994
      vertex 43.4004 164.025 0.0999994
    endloop
  endfacet
  facet normal -0.481751 0.876308 0
    outer loop
      vertex 41.6947 163.087 0.0999994
      vertex 43.4004 164.025 0
      vertex 41.6947 163.087 0
    endloop
  endfacet
  facet normal -0.587781 0.80902 0
    outer loop
      vertex 41.6947 163.087 0
      vertex 40.1199 161.943 0.0999994
      vertex 41.6947 163.087 0.0999994
    endloop
  endfacet
  facet normal -0.587781 0.80902 0
    outer loop
      vertex 40.1199 161.943 0.0999994
      vertex 41.6947 163.087 0
      vertex 40.1199 161.943 0
    endloop
  endfacet
  facet normal -0.125339 0.992114 0
    outer loop
      vertex 49.0267 165.469 0
      vertex 47.0956 165.225 0.0999994
      vertex 49.0267 165.469 0.0999994
    endloop
  endfacet
  facet normal -0.125339 0.992114 0
    outer loop
      vertex 47.0956 165.225 0.0999994
      vertex 49.0267 165.469 0
      vertex 47.0956 165.225 0
    endloop
  endfacet
  facet normal 0.998027 -0.0627912 0
    outer loop
      vertex 65.3778 148.057 0.0999994
      vertex 65.5 150 0
      vertex 65.5 150 0.0999994
    endloop
  endfacet
  facet normal 0.998027 -0.0627912 0
    outer loop
      vertex 65.5 150 0
      vertex 65.3778 148.057 0.0999994
      vertex 65.3778 148.057 0
    endloop
  endfacet
  facet normal -0.904826 -0.425782 0
    outer loop
      vertex 36.4172 142.533 0
      vertex 35.5885 144.294 0.0999994
      vertex 35.5885 144.294 0
    endloop
  endfacet
  facet normal -0.904826 -0.425782 0
    outer loop
      vertex 35.5885 144.294 0.0999994
      vertex 36.4172 142.533 0
      vertex 36.4172 142.533 0.0999994
    endloop
  endfacet
  facet normal 0 0 -1
    outer loop
      vertex 64.5 150 0
      vertex 65.5 150 0
      vertex 65.3778 148.057 0
    endloop
  endfacet
  facet normal 0 0 -1
    outer loop
      vertex 64.3857 148.183 0
      vertex 65.3778 148.057 0
      vertex 65.013 146.145 0
    endloop
  endfacet
  facet normal 0 0 -1
    outer loop
      vertex 65.5 150 0
      vertex 64.5 150 0
      vertex 65.3778 151.943 0
    endloop
  endfacet
  facet normal 0 0 -1
    outer loop
      vertex 64.3857 151.817 0
      vertex 65.3778 151.943 0
      vertex 64.5 150 0
    endloop
  endfacet
  facet normal 0 0 -1
    outer loop
      vertex 64.0445 146.394 0
      vertex 65.013 146.145 0
      vertex 64.4115 144.294 0
    endloop
  endfacet
  facet normal 0 0 -1
    outer loop
      vertex 65.3778 148.057 0
      vertex 64.3857 148.183 0
      vertex 64.5 150 0
    endloop
  endfacet
  facet normal 0 0 -1
    outer loop
      vertex 65.013 146.145 0
      vertex 64.0445 146.394 0
      vertex 64.3857 148.183 0
    endloop
  endfacet
  facet normal 0 0 -1
    outer loop
      vertex 63.4818 144.662 0
      vertex 64.4115 144.294 0
      vertex 63.5828 142.533 0
    endloop
  endfacet
  facet normal 0 0 -1
    outer loop
      vertex 64.4115 144.294 0
      vertex 63.4818 144.662 0
      vertex 64.0445 146.394 0
    endloop
  endfacet
  facet normal 0 0 -1
    outer loop
      vertex 63.5828 142.533 0
      vertex 62.7064 143.015 0
      vertex 63.4818 144.662 0
    endloop
  endfacet
  facet normal 0 0 -1
    outer loop
      vertex 62.5398 140.889 0
      vertex 62.7064 143.015 0
      vertex 63.5828 142.533 0
    endloop
  endfacet
  facet normal 0 0 -1
    outer loop
      vertex 62.5398 140.889 0
      vertex 61.7307 141.477 0
      vertex 62.7064 143.015 0
    endloop
  endfacet
  facet normal 0 0 -1
    outer loop
      vertex 61.299 139.39 0
      vertex 61.7307 141.477 0
      vertex 62.5398 140.889 0
    endloop
  endfacet
  facet normal 0 0 -1
    outer loop
      vertex 61.299 139.39 0
      vertex 60.57 140.074 0
      vertex 61.7307 141.477 0
    endloop
  endfacet
  facet normal 0 0 -1
    outer loop
      vertex 59.8801 138.057 0
      vertex 60.57 140.074 0
      vertex 61.299 139.39 0
    endloop
  endfacet
  facet normal 0 0 -1
    outer loop
      vertex 59.8801 138.057 0
      vertex 59.2426 138.828 0
      vertex 60.57 140.074 0
    endloop
  endfacet
  facet normal 0 0 -1
    outer loop
      vertex 58.3053 136.913 0
      vertex 59.2426 138.828 0
      vertex 59.8801 138.057 0
    endloop
  endfacet
  facet normal 0 0 -1
    outer loop
      vertex 58.3053 136.913 0
      vertex 57.7695 137.757 0
      vertex 59.2426 138.828 0
    endloop
  endfacet
  facet normal 0 0 -1
    outer loop
      vertex 56.5996 135.975 0
      vertex 57.7695 137.757 0
      vertex 58.3053 136.913 0
    endloop
  endfacet
  facet normal 0 0 -1
    outer loop
      vertex 56.5996 135.975 0
      vertex 56.1738 136.88 0
      vertex 57.7695 137.757 0
    endloop
  endfacet
  facet normal 0 0 -1
    outer loop
      vertex 54.7898 135.259 0
      vertex 56.1738 136.88 0
      vertex 56.5996 135.975 0
    endloop
  endfacet
  facet normal 0 0 -1
    outer loop
      vertex 54.7898 135.259 0
      vertex 54.4807 136.21 0
      vertex 56.1738 136.88 0
    endloop
  endfacet
  facet normal 0 0 -1
    outer loop
      vertex 52.9044 134.775 0
      vertex 54.4807 136.21 0
      vertex 54.7898 135.259 0
    endloop
  endfacet
  facet normal 0 0 -1
    outer loop
      vertex 52.9044 134.775 0
      vertex 52.717 135.757 0
      vertex 54.4807 136.21 0
    endloop
  endfacet
  facet normal 0 0 -1
    outer loop
      vertex 50.9733 134.531 0
      vertex 52.717 135.757 0
      vertex 52.9044 134.775 0
    endloop
  endfacet
  facet normal 0 0 -1
    outer loop
      vertex 50.9733 134.531 0
      vertex 50.9105 135.529 0
      vertex 52.717 135.757 0
    endloop
  endfacet
  facet normal 0 0 -1
    outer loop
      vertex 50.9733 134.531 0
      vertex 49.0895 135.529 0
      vertex 50.9105 135.529 0
    endloop
  endfacet
  facet normal 0 0 -1
    outer loop
      vertex 49.0267 134.531 0
      vertex 49.0895 135.529 0
      vertex 50.9733 134.531 0
    endloop
  endfacet
  facet normal 0 0 -1
    outer loop
      vertex 49.0267 134.531 0
      vertex 47.283 135.757 0
      vertex 49.0895 135.529 0
    endloop
  endfacet
  facet normal 0 0 -1
    outer loop
      vertex 47.0956 134.775 0
      vertex 47.283 135.757 0
      vertex 49.0267 134.531 0
    endloop
  endfacet
  facet normal 0 0 -1
    outer loop
      vertex 47.0956 134.775 0
      vertex 45.5193 136.21 0
      vertex 47.283 135.757 0
    endloop
  endfacet
  facet normal 0 0 -1
    outer loop
      vertex 45.2102 135.259 0
      vertex 45.5193 136.21 0
      vertex 47.0956 134.775 0
    endloop
  endfacet
  facet normal 0 0 -1
    outer loop
      vertex 45.2102 135.259 0
      vertex 43.8262 136.88 0
      vertex 45.5193 136.21 0
    endloop
  endfacet
  facet normal 0 0 -1
    outer loop
      vertex 43.4004 135.975 0
      vertex 43.8262 136.88 0
      vertex 45.2102 135.259 0
    endloop
  endfacet
  facet normal 0 0 -1
    outer loop
      vertex 43.4004 135.975 0
      vertex 42.2305 137.757 0
      vertex 43.8262 136.88 0
    endloop
  endfacet
  facet normal 0 0 -1
    outer loop
      vertex 41.6947 136.913 0
      vertex 42.2305 137.757 0
      vertex 43.4004 135.975 0
    endloop
  endfacet
  facet normal 0 0 -1
    outer loop
      vertex 41.6947 136.913 0
      vertex 40.7574 138.828 0
      vertex 42.2305 137.757 0
    endloop
  endfacet
  facet normal 0 0 -1
    outer loop
      vertex 40.1199 138.057 0
      vertex 40.7574 138.828 0
      vertex 41.6947 136.913 0
    endloop
  endfacet
  facet normal 0 0 -1
    outer loop
      vertex 40.1199 138.057 0
      vertex 39.43 140.074 0
      vertex 40.7574 138.828 0
    endloop
  endfacet
  facet normal 0 0 -1
    outer loop
      vertex 38.701 139.39 0
      vertex 39.43 140.074 0
      vertex 40.1199 138.057 0
    endloop
  endfacet
  facet normal 0 0 -1
    outer loop
      vertex 38.701 139.39 0
      vertex 38.2693 141.477 0
      vertex 39.43 140.074 0
    endloop
  endfacet
  facet normal 0 0 -1
    outer loop
      vertex 37.4602 140.889 0
      vertex 38.2693 141.477 0
      vertex 38.701 139.39 0
    endloop
  endfacet
  facet normal 0 0 -1
    outer loop
      vertex 37.4602 140.889 0
      vertex 37.2936 143.015 0
      vertex 38.2693 141.477 0
    endloop
  endfacet
  facet normal 0 0 -1
    outer loop
      vertex 36.4172 142.533 0
      vertex 37.2936 143.015 0
      vertex 37.4602 140.889 0
    endloop
  endfacet
  facet normal -0 0 -1
    outer loop
      vertex 37.2936 143.015 0
      vertex 36.4172 142.533 0
      vertex 36.5182 144.662 0
    endloop
  endfacet
  facet normal 0 0 -1
    outer loop
      vertex 35.5885 144.294 0
      vertex 36.5182 144.662 0
      vertex 36.4172 142.533 0
    endloop
  endfacet
  facet normal -0 0 -1
    outer loop
      vertex 36.5182 144.662 0
      vertex 35.5885 144.294 0
      vertex 35.9555 146.394 0
    endloop
  endfacet
  facet normal 0 0 -1
    outer loop
      vertex 34.987 146.145 0
      vertex 35.9555 146.394 0
      vertex 35.5885 144.294 0
    endloop
  endfacet
  facet normal -0 0 -1
    outer loop
      vertex 35.9555 146.394 0
      vertex 34.987 146.145 0
      vertex 35.6143 148.183 0
    endloop
  endfacet
  facet normal 0 0 -1
    outer loop
      vertex 34.6222 148.057 0
      vertex 35.6143 148.183 0
      vertex 34.987 146.145 0
    endloop
  endfacet
  facet normal -0 0 -1
    outer loop
      vertex 65.3778 151.943 0
      vertex 64.3857 151.817 0
      vertex 65.013 153.855 0
    endloop
  endfacet
  facet normal 0 0 -1
    outer loop
      vertex 64.0445 153.606 0
      vertex 65.013 153.855 0
      vertex 64.3857 151.817 0
    endloop
  endfacet
  facet normal -0 0 -1
    outer loop
      vertex 65.013 153.855 0
      vertex 64.0445 153.606 0
      vertex 64.4115 155.706 0
    endloop
  endfacet
  facet normal 0 0 -1
    outer loop
      vertex 63.4818 155.338 0
      vertex 64.4115 155.706 0
      vertex 64.0445 153.606 0
    endloop
  endfacet
  facet normal -0 0 -1
    outer loop
      vertex 64.4115 155.706 0
      vertex 63.4818 155.338 0
      vertex 63.5828 157.467 0
    endloop
  endfacet
  facet normal 0 0 -1
    outer loop
      vertex 62.7064 156.985 0
      vertex 63.5828 157.467 0
      vertex 63.4818 155.338 0
    endloop
  endfacet
  facet normal 0 0 -1
    outer loop
      vertex 62.7064 156.985 0
      vertex 62.5398 159.111 0
      vertex 63.5828 157.467 0
    endloop
  endfacet
  facet normal 0 0 -1
    outer loop
      vertex 61.7307 158.523 0
      vertex 62.5398 159.111 0
      vertex 62.7064 156.985 0
    endloop
  endfacet
  facet normal 0 0 -1
    outer loop
      vertex 61.7307 158.523 0
      vertex 61.299 160.61 0
      vertex 62.5398 159.111 0
    endloop
  endfacet
  facet normal 0 0 -1
    outer loop
      vertex 60.57 159.926 0
      vertex 61.299 160.61 0
      vertex 61.7307 158.523 0
    endloop
  endfacet
  facet normal 0 0 -1
    outer loop
      vertex 60.57 159.926 0
      vertex 59.8801 161.943 0
      vertex 61.299 160.61 0
    endloop
  endfacet
  facet normal 0 0 -1
    outer loop
      vertex 59.2426 161.172 0
      vertex 59.8801 161.943 0
      vertex 60.57 159.926 0
    endloop
  endfacet
  facet normal 0 0 -1
    outer loop
      vertex 59.2426 161.172 0
      vertex 58.3053 163.087 0
      vertex 59.8801 161.943 0
    endloop
  endfacet
  facet normal 0 0 -1
    outer loop
      vertex 57.7695 162.243 0
      vertex 58.3053 163.087 0
      vertex 59.2426 161.172 0
    endloop
  endfacet
  facet normal 0 0 -1
    outer loop
      vertex 57.7695 162.243 0
      vertex 56.5996 164.025 0
      vertex 58.3053 163.087 0
    endloop
  endfacet
  facet normal 0 0 -1
    outer loop
      vertex 56.1738 163.12 0
      vertex 56.5996 164.025 0
      vertex 57.7695 162.243 0
    endloop
  endfacet
  facet normal 0 0 -1
    outer loop
      vertex 56.1738 163.12 0
      vertex 54.7898 164.741 0
      vertex 56.5996 164.025 0
    endloop
  endfacet
  facet normal 0 0 -1
    outer loop
      vertex 54.4807 163.79 0
      vertex 54.7898 164.741 0
      vertex 56.1738 163.12 0
    endloop
  endfacet
  facet normal 0 0 -1
    outer loop
      vertex 54.4807 163.79 0
      vertex 52.9044 165.225 0
      vertex 54.7898 164.741 0
    endloop
  endfacet
  facet normal 0 0 -1
    outer loop
      vertex 52.717 164.243 0
      vertex 52.9044 165.225 0
      vertex 54.4807 163.79 0
    endloop
  endfacet
  facet normal 0 0 -1
    outer loop
      vertex 52.717 164.243 0
      vertex 50.9733 165.469 0
      vertex 52.9044 165.225 0
    endloop
  endfacet
  facet normal 0 0 -1
    outer loop
      vertex 50.9105 164.471 0
      vertex 50.9733 165.469 0
      vertex 52.717 164.243 0
    endloop
  endfacet
  facet normal 0 0 -1
    outer loop
      vertex 49.0895 164.471 0
      vertex 50.9733 165.469 0
      vertex 50.9105 164.471 0
    endloop
  endfacet
  facet normal 0 0 -1
    outer loop
      vertex 49.0895 164.471 0
      vertex 49.0267 165.469 0
      vertex 50.9733 165.469 0
    endloop
  endfacet
  facet normal 0 0 -1
    outer loop
      vertex 47.283 164.243 0
      vertex 49.0267 165.469 0
      vertex 49.0895 164.471 0
    endloop
  endfacet
  facet normal 0 0 -1
    outer loop
      vertex 47.283 164.243 0
      vertex 47.0956 165.225 0
      vertex 49.0267 165.469 0
    endloop
  endfacet
  facet normal 0 0 -1
    outer loop
      vertex 45.5193 163.79 0
      vertex 47.0956 165.225 0
      vertex 47.283 164.243 0
    endloop
  endfacet
  facet normal 0 0 -1
    outer loop
      vertex 45.5193 163.79 0
      vertex 45.2102 164.741 0
      vertex 47.0956 165.225 0
    endloop
  endfacet
  facet normal 0 0 -1
    outer loop
      vertex 43.8262 163.12 0
      vertex 45.2102 164.741 0
      vertex 45.5193 163.79 0
    endloop
  endfacet
  facet normal 0 0 -1
    outer loop
      vertex 43.8262 163.12 0
      vertex 43.4004 164.025 0
      vertex 45.2102 164.741 0
    endloop
  endfacet
  facet normal 0 0 -1
    outer loop
      vertex 42.2305 162.243 0
      vertex 43.4004 164.025 0
      vertex 43.8262 163.12 0
    endloop
  endfacet
  facet normal 0 0 -1
    outer loop
      vertex 42.2305 162.243 0
      vertex 41.6947 163.087 0
      vertex 43.4004 164.025 0
    endloop
  endfacet
  facet normal 0 0 -1
    outer loop
      vertex 40.7574 161.172 0
      vertex 41.6947 163.087 0
      vertex 42.2305 162.243 0
    endloop
  endfacet
  facet normal 0 0 -1
    outer loop
      vertex 40.7574 161.172 0
      vertex 40.1199 161.943 0
      vertex 41.6947 163.087 0
    endloop
  endfacet
  facet normal 0 0 -1
    outer loop
      vertex 39.43 159.926 0
      vertex 40.1199 161.943 0
      vertex 40.7574 161.172 0
    endloop
  endfacet
  facet normal 0 0 -1
    outer loop
      vertex 39.43 159.926 0
      vertex 38.701 160.61 0
      vertex 40.1199 161.943 0
    endloop
  endfacet
  facet normal 0 0 -1
    outer loop
      vertex 38.2693 158.523 0
      vertex 38.701 160.61 0
      vertex 39.43 159.926 0
    endloop
  endfacet
  facet normal 0 0 -1
    outer loop
      vertex 38.2693 158.523 0
      vertex 37.4602 159.111 0
      vertex 38.701 160.61 0
    endloop
  endfacet
  facet normal 0 0 -1
    outer loop
      vertex 37.2936 156.985 0
      vertex 37.4602 159.111 0
      vertex 38.2693 158.523 0
    endloop
  endfacet
  facet normal 0 0 -1
    outer loop
      vertex 36.4172 157.467 0
      vertex 37.2936 156.985 0
      vertex 36.5182 155.338 0
    endloop
  endfacet
  facet normal 0 0 -1
    outer loop
      vertex 37.2936 156.985 0
      vertex 36.4172 157.467 0
      vertex 37.4602 159.111 0
    endloop
  endfacet
  facet normal 0 0 -1
    outer loop
      vertex 35.5885 155.706 0
      vertex 36.5182 155.338 0
      vertex 35.9555 153.606 0
    endloop
  endfacet
  facet normal 0 0 -1
    outer loop
      vertex 34.987 153.855 0
      vertex 35.9555 153.606 0
      vertex 35.6143 151.817 0
    endloop
  endfacet
  facet normal 0 0 -1
    outer loop
      vertex 36.5182 155.338 0
      vertex 35.5885 155.706 0
      vertex 36.4172 157.467 0
    endloop
  endfacet
  facet normal 0 0 -1
    outer loop
      vertex 34.6222 151.943 0
      vertex 35.6143 151.817 0
      vertex 35.5 150 0
    endloop
  endfacet
  facet normal -0 0 -1
    outer loop
      vertex 35.6143 148.183 0
      vertex 34.6222 148.057 0
      vertex 35.5 150 0
    endloop
  endfacet
  facet normal 0 0 -1
    outer loop
      vertex 35.9555 153.606 0
      vertex 34.987 153.855 0
      vertex 35.5885 155.706 0
    endloop
  endfacet
  facet normal 0 0 -1
    outer loop
      vertex 34.5 150 0
      vertex 35.5 150 0
      vertex 34.6222 148.057 0
    endloop
  endfacet
  facet normal 0 0 -1
    outer loop
      vertex 35.6143 151.817 0
      vertex 34.6222 151.943 0
      vertex 34.987 153.855 0
    endloop
  endfacet
  facet normal 0 0 -1
    outer loop
      vertex 35.5 150 0
      vertex 34.5 150 0
      vertex 34.6222 151.943 0
    endloop
  endfacet
  facet normal 0.481751 -0.876308 0
    outer loop
      vertex 56.5996 135.975 0
      vertex 58.3053 136.913 0.0999994
      vertex 56.5996 135.975 0.0999994
    endloop
  endfacet
  facet normal 0.481751 -0.876308 0
    outer loop
      vertex 58.3053 136.913 0.0999994
      vertex 56.5996 135.975 0
      vertex 58.3053 136.913 0
    endloop
  endfacet
  facet normal 0.904826 -0.425782 0
    outer loop
      vertex 63.5828 142.533 0.0999994
      vertex 64.4115 144.294 0
      vertex 64.4115 144.294 0.0999994
    endloop
  endfacet
  facet normal 0.904826 -0.425782 0
    outer loop
      vertex 64.4115 144.294 0
      vertex 63.5828 142.533 0.0999994
      vertex 63.5828 142.533 0
    endloop
  endfacet
  facet normal 0.951057 -0.309015 0
    outer loop
      vertex 64.4115 144.294 0.0999994
      vertex 65.013 146.145 0
      vertex 65.013 146.145 0.0999994
    endloop
  endfacet
  facet normal 0.951057 -0.309015 0
    outer loop
      vertex 65.013 146.145 0
      vertex 64.4115 144.294 0.0999994
      vertex 64.4115 144.294 0
    endloop
  endfacet
  facet normal -0.951057 -0.309015 0
    outer loop
      vertex 35.5885 144.294 0
      vertex 34.987 146.145 0.0999994
      vertex 34.987 146.145 0
    endloop
  endfacet
  facet normal -0.951057 -0.309015 0
    outer loop
      vertex 34.987 146.145 0.0999994
      vertex 35.5885 144.294 0
      vertex 35.5885 144.294 0.0999994
    endloop
  endfacet
  facet normal -0.998027 -0.0627912 0
    outer loop
      vertex 34.6222 148.057 0
      vertex 34.5 150 0.0999994
      vertex 34.5 150 0
    endloop
  endfacet
  facet normal -0.998027 -0.0627912 0
    outer loop
      vertex 34.5 150 0.0999994
      vertex 34.6222 148.057 0
      vertex 34.6222 148.057 0.0999994
    endloop
  endfacet
  facet normal 0.684552 -0.728964 0
    outer loop
      vertex 59.8801 138.057 0
      vertex 61.299 139.39 0.0999994
      vertex 59.8801 138.057 0.0999994
    endloop
  endfacet
  facet normal 0.684552 -0.728964 0
    outer loop
      vertex 61.299 139.39 0.0999994
      vertex 59.8801 138.057 0
      vertex 61.299 139.39 0
    endloop
  endfacet
  facet normal 0.36813 -0.929774 0
    outer loop
      vertex 54.7898 135.259 0
      vertex 56.5996 135.975 0.0999994
      vertex 54.7898 135.259 0.0999994
    endloop
  endfacet
  facet normal 0.36813 -0.929774 0
    outer loop
      vertex 56.5996 135.975 0.0999994
      vertex 54.7898 135.259 0
      vertex 56.5996 135.975 0
    endloop
  endfacet
  facet normal 0.248687 -0.968584 0
    outer loop
      vertex 52.9044 134.775 0
      vertex 54.7898 135.259 0.0999994
      vertex 52.9044 134.775 0.0999994
    endloop
  endfacet
  facet normal 0.248687 -0.968584 0
    outer loop
      vertex 54.7898 135.259 0.0999994
      vertex 52.9044 134.775 0
      vertex 54.7898 135.259 0
    endloop
  endfacet
  facet normal 0.844329 -0.535825 0
    outer loop
      vertex 62.5398 140.889 0.0999994
      vertex 63.5828 142.533 0
      vertex 63.5828 142.533 0.0999994
    endloop
  endfacet
  facet normal 0.844329 -0.535825 0
    outer loop
      vertex 63.5828 142.533 0
      vertex 62.5398 140.889 0.0999994
      vertex 62.5398 140.889 0
    endloop
  endfacet
  facet normal -0.36813 -0.929774 0
    outer loop
      vertex 43.4004 135.975 0
      vertex 45.2102 135.259 0.0999994
      vertex 43.4004 135.975 0.0999994
    endloop
  endfacet
  facet normal -0.36813 -0.929774 -0
    outer loop
      vertex 45.2102 135.259 0.0999994
      vertex 43.4004 135.975 0
      vertex 45.2102 135.259 0
    endloop
  endfacet
  facet normal -0.248687 -0.968584 0
    outer loop
      vertex 45.2102 135.259 0
      vertex 47.0956 134.775 0.0999994
      vertex 45.2102 135.259 0.0999994
    endloop
  endfacet
  facet normal -0.248687 -0.968584 -0
    outer loop
      vertex 47.0956 134.775 0.0999994
      vertex 45.2102 135.259 0
      vertex 47.0956 134.775 0
    endloop
  endfacet
  facet normal -0.684552 -0.728964 0
    outer loop
      vertex 38.701 139.39 0
      vertex 40.1199 138.057 0.0999994
      vertex 38.701 139.39 0.0999994
    endloop
  endfacet
  facet normal -0.684552 -0.728964 -0
    outer loop
      vertex 40.1199 138.057 0.0999994
      vertex 38.701 139.39 0
      vertex 40.1199 138.057 0
    endloop
  endfacet
  facet normal -0.982287 -0.187381 0
    outer loop
      vertex 34.987 146.145 0
      vertex 34.6222 148.057 0.0999994
      vertex 34.6222 148.057 0
    endloop
  endfacet
  facet normal -0.982287 -0.187381 0
    outer loop
      vertex 34.6222 148.057 0.0999994
      vertex 34.987 146.145 0
      vertex 34.987 146.145 0.0999994
    endloop
  endfacet
  facet normal 0.587781 -0.80902 0
    outer loop
      vertex 58.3053 136.913 0
      vertex 59.8801 138.057 0.0999994
      vertex 58.3053 136.913 0.0999994
    endloop
  endfacet
  facet normal 0.587781 -0.80902 0
    outer loop
      vertex 59.8801 138.057 0.0999994
      vertex 58.3053 136.913 0
      vertex 59.8801 138.057 0
    endloop
  endfacet
  facet normal 0.770511 -0.637427 0
    outer loop
      vertex 61.299 139.39 0.0999994
      vertex 62.5398 140.889 0
      vertex 62.5398 140.889 0.0999994
    endloop
  endfacet
  facet normal 0.770511 -0.637427 0
    outer loop
      vertex 62.5398 140.889 0
      vertex 61.299 139.39 0.0999994
      vertex 61.299 139.39 0
    endloop
  endfacet
  facet normal -0.587781 -0.80902 0
    outer loop
      vertex 40.1199 138.057 0
      vertex 41.6947 136.913 0.0999994
      vertex 40.1199 138.057 0.0999994
    endloop
  endfacet
  facet normal -0.587781 -0.80902 -0
    outer loop
      vertex 41.6947 136.913 0.0999994
      vertex 40.1199 138.057 0
      vertex 41.6947 136.913 0
    endloop
  endfacet
  facet normal -0.125339 -0.992114 0
    outer loop
      vertex 47.0956 134.775 0
      vertex 49.0267 134.531 0.0999994
      vertex 47.0956 134.775 0.0999994
    endloop
  endfacet
  facet normal -0.125339 -0.992114 -0
    outer loop
      vertex 49.0267 134.531 0.0999994
      vertex 47.0956 134.775 0
      vertex 49.0267 134.531 0
    endloop
  endfacet
  facet normal -0.844329 -0.535825 0
    outer loop
      vertex 37.4602 140.889 0
      vertex 36.4172 142.533 0.0999994
      vertex 36.4172 142.533 0
    endloop
  endfacet
  facet normal -0.844329 -0.535825 0
    outer loop
      vertex 36.4172 142.533 0.0999994
      vertex 37.4602 140.889 0
      vertex 37.4602 140.889 0.0999994
    endloop
  endfacet
  facet normal -0.770511 -0.637427 0
    outer loop
      vertex 38.701 139.39 0
      vertex 37.4602 140.889 0.0999994
      vertex 37.4602 140.889 0
    endloop
  endfacet
  facet normal -0.770511 -0.637427 0
    outer loop
      vertex 37.4602 140.889 0.0999994
      vertex 38.701 139.39 0
      vertex 38.701 139.39 0.0999994
    endloop
  endfacet
  facet normal -0.481751 -0.876308 0
    outer loop
      vertex 41.6947 136.913 0
      vertex 43.4004 135.975 0.0999994
      vertex 41.6947 136.913 0.0999994
    endloop
  endfacet
  facet normal -0.481751 -0.876308 -0
    outer loop
      vertex 43.4004 135.975 0.0999994
      vertex 41.6947 136.913 0
      vertex 43.4004 135.975 0
    endloop
  endfacet
  facet normal -0.998027 -0.0627889 0
    outer loop
      vertex 64.5 150 0
      vertex 64.3857 151.817 0.0999994
      vertex 64.3857 151.817 0
    endloop
  endfacet
  facet normal -0.998027 -0.0627889 0
    outer loop
      vertex 64.3857 151.817 0.0999994
      vertex 64.5 150 0
      vertex 64.5 150 0.0999994
    endloop
  endfacet
  facet normal 0.998027 -0.0627909 0
    outer loop
      vertex 35.5 150 0.0999994
      vertex 35.6143 151.817 0
      vertex 35.6143 151.817 0.0999994
    endloop
  endfacet
  facet normal 0.998027 -0.0627909 0
    outer loop
      vertex 35.6143 151.817 0
      vertex 35.5 150 0.0999994
      vertex 35.5 150 0
    endloop
  endfacet
  facet normal 0 -1 0
    outer loop
      vertex 49.0895 164.471 0
      vertex 50.9105 164.471 0.0999994
      vertex 49.0895 164.471 0.0999994
    endloop
  endfacet
  facet normal 0 -1 -0
    outer loop
      vertex 50.9105 164.471 0.0999994
      vertex 49.0895 164.471 0
      vertex 50.9105 164.471 0
    endloop
  endfacet
  facet normal 0 1 -0
    outer loop
      vertex 50.9105 135.529 0
      vertex 49.0895 135.529 0.0999994
      vertex 50.9105 135.529 0.0999994
    endloop
  endfacet
  facet normal 0 1 0
    outer loop
      vertex 49.0895 135.529 0.0999994
      vertex 50.9105 135.529 0
      vertex 49.0895 135.529 0
    endloop
  endfacet
  facet normal -0.684545 -0.72897 0
    outer loop
      vertex 59.2426 161.172 0
      vertex 60.57 159.926 0.0999994
      vertex 59.2426 161.172 0.0999994
    endloop
  endfacet
  facet normal -0.684545 -0.72897 -0
    outer loop
      vertex 60.57 159.926 0.0999994
      vertex 59.2426 161.172 0
      vertex 60.57 159.926 0
    endloop
  endfacet
  facet normal 0.684545 -0.72897 0
    outer loop
      vertex 39.43 159.926 0
      vertex 40.7574 161.172 0.0999994
      vertex 39.43 159.926 0.0999994
    endloop
  endfacet
  facet normal 0.684545 -0.72897 0
    outer loop
      vertex 40.7574 161.172 0.0999994
      vertex 39.43 159.926 0
      vertex 40.7574 161.172 0
    endloop
  endfacet
  facet normal 0.368121 -0.929778 0
    outer loop
      vertex 43.8262 163.12 0
      vertex 45.5193 163.79 0.0999994
      vertex 43.8262 163.12 0.0999994
    endloop
  endfacet
  facet normal 0.368121 -0.929778 0
    outer loop
      vertex 45.5193 163.79 0.0999994
      vertex 43.8262 163.12 0
      vertex 45.5193 163.79 0
    endloop
  endfacet
  facet normal -0.904828 -0.425777 0
    outer loop
      vertex 63.4818 155.338 0
      vertex 62.7064 156.985 0.0999994
      vertex 62.7064 156.985 0
    endloop
  endfacet
  facet normal -0.904828 -0.425777 0
    outer loop
      vertex 62.7064 156.985 0.0999994
      vertex 63.4818 155.338 0
      vertex 63.4818 155.338 0.0999994
    endloop
  endfacet
  facet normal -0.982287 -0.187383 0
    outer loop
      vertex 64.3857 151.817 0
      vertex 64.0445 153.606 0.0999994
      vertex 64.0445 153.606 0
    endloop
  endfacet
  facet normal -0.982287 -0.187383 0
    outer loop
      vertex 64.0445 153.606 0.0999994
      vertex 64.3857 151.817 0
      vertex 64.3857 151.817 0.0999994
    endloop
  endfacet
  facet normal -0.368121 -0.929778 0
    outer loop
      vertex 54.4807 163.79 0
      vertex 56.1738 163.12 0.0999994
      vertex 54.4807 163.79 0.0999994
    endloop
  endfacet
  facet normal -0.368121 -0.929778 -0
    outer loop
      vertex 56.1738 163.12 0.0999994
      vertex 54.4807 163.79 0
      vertex 56.1738 163.12 0
    endloop
  endfacet
  facet normal -0.248692 -0.968583 0
    outer loop
      vertex 52.717 164.243 0
      vertex 54.4807 163.79 0.0999994
      vertex 52.717 164.243 0.0999994
    endloop
  endfacet
  facet normal -0.248692 -0.968583 -0
    outer loop
      vertex 54.4807 163.79 0.0999994
      vertex 52.717 164.243 0
      vertex 54.4807 163.79 0
    endloop
  endfacet
  facet normal -0.481755 -0.876306 0
    outer loop
      vertex 56.1738 163.12 0
      vertex 57.7695 162.243 0.0999994
      vertex 56.1738 163.12 0.0999994
    endloop
  endfacet
  facet normal -0.481755 -0.876306 -0
    outer loop
      vertex 57.7695 162.243 0.0999994
      vertex 56.1738 163.12 0
      vertex 57.7695 162.243 0
    endloop
  endfacet
  facet normal 0.904828 -0.425777 0
    outer loop
      vertex 36.5182 155.338 0.0999994
      vertex 37.2936 156.985 0
      vertex 37.2936 156.985 0.0999994
    endloop
  endfacet
  facet normal 0.904828 -0.425777 0
    outer loop
      vertex 37.2936 156.985 0
      vertex 36.5182 155.338 0.0999994
      vertex 36.5182 155.338 0
    endloop
  endfacet
  facet normal 0.951056 -0.309019 0
    outer loop
      vertex 35.9555 153.606 0.0999994
      vertex 36.5182 155.338 0
      vertex 36.5182 155.338 0.0999994
    endloop
  endfacet
  facet normal 0.951056 -0.309019 0
    outer loop
      vertex 36.5182 155.338 0
      vertex 35.9555 153.606 0.0999994
      vertex 35.9555 153.606 0
    endloop
  endfacet
  facet normal 0.125335 -0.992114 0
    outer loop
      vertex 47.283 164.243 0
      vertex 49.0895 164.471 0.0999994
      vertex 47.283 164.243 0.0999994
    endloop
  endfacet
  facet normal 0.125335 -0.992114 0
    outer loop
      vertex 49.0895 164.471 0.0999994
      vertex 47.283 164.243 0
      vertex 49.0895 164.471 0
    endloop
  endfacet
  facet normal -0.125335 0.992114 0
    outer loop
      vertex 52.717 135.757 0
      vertex 50.9105 135.529 0.0999994
      vertex 52.717 135.757 0.0999994
    endloop
  endfacet
  facet normal -0.125335 0.992114 0
    outer loop
      vertex 50.9105 135.529 0.0999994
      vertex 52.717 135.757 0
      vertex 50.9105 135.529 0
    endloop
  endfacet
  facet normal -0.951056 -0.309019 0
    outer loop
      vertex 64.0445 153.606 0
      vertex 63.4818 155.338 0.0999994
      vertex 63.4818 155.338 0
    endloop
  endfacet
  facet normal -0.951056 -0.309019 0
    outer loop
      vertex 63.4818 155.338 0.0999994
      vertex 64.0445 153.606 0
      vertex 64.0445 153.606 0.0999994
    endloop
  endfacet
  facet normal -0.770513 -0.637424 0
    outer loop
      vertex 61.7307 158.523 0
      vertex 60.57 159.926 0.0999994
      vertex 60.57 159.926 0
    endloop
  endfacet
  facet normal -0.770513 -0.637424 0
    outer loop
      vertex 60.57 159.926 0.0999994
      vertex 61.7307 158.523 0
      vertex 61.7307 158.523 0.0999994
    endloop
  endfacet
  facet normal -0.844328 -0.535826 0
    outer loop
      vertex 62.7064 156.985 0
      vertex 61.7307 158.523 0.0999994
      vertex 61.7307 158.523 0
    endloop
  endfacet
  facet normal -0.844328 -0.535826 0
    outer loop
      vertex 61.7307 158.523 0.0999994
      vertex 62.7064 156.985 0
      vertex 62.7064 156.985 0.0999994
    endloop
  endfacet
  facet normal -0.125335 -0.992114 0
    outer loop
      vertex 50.9105 164.471 0
      vertex 52.717 164.243 0.0999994
      vertex 50.9105 164.471 0.0999994
    endloop
  endfacet
  facet normal -0.125335 -0.992114 -0
    outer loop
      vertex 52.717 164.243 0.0999994
      vertex 50.9105 164.471 0
      vertex 52.717 164.243 0
    endloop
  endfacet
  facet normal -0.587786 -0.809016 0
    outer loop
      vertex 57.7695 162.243 0
      vertex 59.2426 161.172 0.0999994
      vertex 57.7695 162.243 0.0999994
    endloop
  endfacet
  facet normal -0.587786 -0.809016 -0
    outer loop
      vertex 59.2426 161.172 0.0999994
      vertex 57.7695 162.243 0
      vertex 59.2426 161.172 0
    endloop
  endfacet
  facet normal 0.844328 -0.535826 0
    outer loop
      vertex 37.2936 156.985 0.0999994
      vertex 38.2693 158.523 0
      vertex 38.2693 158.523 0.0999994
    endloop
  endfacet
  facet normal 0.844328 -0.535826 0
    outer loop
      vertex 38.2693 158.523 0
      vertex 37.2936 156.985 0.0999994
      vertex 37.2936 156.985 0
    endloop
  endfacet
  facet normal 0.770513 -0.637424 0
    outer loop
      vertex 38.2693 158.523 0.0999994
      vertex 39.43 159.926 0
      vertex 39.43 159.926 0.0999994
    endloop
  endfacet
  facet normal 0.770513 -0.637424 0
    outer loop
      vertex 39.43 159.926 0
      vertex 38.2693 158.523 0.0999994
      vertex 38.2693 158.523 0
    endloop
  endfacet
  facet normal 0.982287 -0.187381 0
    outer loop
      vertex 35.6143 151.817 0.0999994
      vertex 35.9555 153.606 0
      vertex 35.9555 153.606 0.0999994
    endloop
  endfacet
  facet normal 0.982287 -0.187381 0
    outer loop
      vertex 35.9555 153.606 0
      vertex 35.6143 151.817 0.0999994
      vertex 35.6143 151.817 0
    endloop
  endfacet
  facet normal 0.481755 -0.876306 0
    outer loop
      vertex 42.2305 162.243 0
      vertex 43.8262 163.12 0.0999994
      vertex 42.2305 162.243 0.0999994
    endloop
  endfacet
  facet normal 0.481755 -0.876306 0
    outer loop
      vertex 43.8262 163.12 0.0999994
      vertex 42.2305 162.243 0
      vertex 43.8262 163.12 0
    endloop
  endfacet
  facet normal 0.587786 -0.809016 0
    outer loop
      vertex 40.7574 161.172 0
      vertex 42.2305 162.243 0.0999994
      vertex 40.7574 161.172 0.0999994
    endloop
  endfacet
  facet normal 0.587786 -0.809016 0
    outer loop
      vertex 42.2305 162.243 0.0999994
      vertex 40.7574 161.172 0
      vertex 42.2305 162.243 0
    endloop
  endfacet
  facet normal 0.248692 -0.968583 0
    outer loop
      vertex 45.5193 163.79 0
      vertex 47.283 164.243 0.0999994
      vertex 45.5193 163.79 0.0999994
    endloop
  endfacet
  facet normal 0.248692 -0.968583 0
    outer loop
      vertex 47.283 164.243 0.0999994
      vertex 45.5193 163.79 0
      vertex 47.283 164.243 0
    endloop
  endfacet
  facet normal -0.998027 0.0627889 0
    outer loop
      vertex 64.3857 148.183 0
      vertex 64.5 150 0.0999994
      vertex 64.5 150 0
    endloop
  endfacet
  facet normal -0.998027 0.0627889 0
    outer loop
      vertex 64.5 150 0.0999994
      vertex 64.3857 148.183 0
      vertex 64.3857 148.183 0.0999994
    endloop
  endfacet
  facet normal -0.982287 0.187383 0
    outer loop
      vertex 64.0445 146.394 0
      vertex 64.3857 148.183 0.0999994
      vertex 64.3857 148.183 0
    endloop
  endfacet
  facet normal -0.982287 0.187383 0
    outer loop
      vertex 64.3857 148.183 0.0999994
      vertex 64.0445 146.394 0
      vertex 64.0445 146.394 0.0999994
    endloop
  endfacet
  facet normal 0.904828 0.425777 0
    outer loop
      vertex 37.2936 143.015 0.0999994
      vertex 36.5182 144.662 0
      vertex 36.5182 144.662 0.0999994
    endloop
  endfacet
  facet normal 0.904828 0.425777 0
    outer loop
      vertex 36.5182 144.662 0
      vertex 37.2936 143.015 0.0999994
      vertex 37.2936 143.015 0
    endloop
  endfacet
  facet normal 0.844328 0.535826 0
    outer loop
      vertex 38.2693 141.477 0.0999994
      vertex 37.2936 143.015 0
      vertex 37.2936 143.015 0.0999994
    endloop
  endfacet
  facet normal 0.844328 0.535826 0
    outer loop
      vertex 37.2936 143.015 0
      vertex 38.2693 141.477 0.0999994
      vertex 38.2693 141.477 0
    endloop
  endfacet
  facet normal -0.481755 0.876306 0
    outer loop
      vertex 57.7695 137.757 0
      vertex 56.1738 136.88 0.0999994
      vertex 57.7695 137.757 0.0999994
    endloop
  endfacet
  facet normal -0.481755 0.876306 0
    outer loop
      vertex 56.1738 136.88 0.0999994
      vertex 57.7695 137.757 0
      vertex 56.1738 136.88 0
    endloop
  endfacet
  facet normal -0.904828 0.425777 0
    outer loop
      vertex 62.7064 143.015 0
      vertex 63.4818 144.662 0.0999994
      vertex 63.4818 144.662 0
    endloop
  endfacet
  facet normal -0.904828 0.425777 0
    outer loop
      vertex 63.4818 144.662 0.0999994
      vertex 62.7064 143.015 0
      vertex 62.7064 143.015 0.0999994
    endloop
  endfacet
  facet normal 0.770513 0.637424 0
    outer loop
      vertex 39.43 140.074 0.0999994
      vertex 38.2693 141.477 0
      vertex 38.2693 141.477 0.0999994
    endloop
  endfacet
  facet normal 0.770513 0.637424 0
    outer loop
      vertex 38.2693 141.477 0
      vertex 39.43 140.074 0.0999994
      vertex 39.43 140.074 0
    endloop
  endfacet
  facet normal 0.951056 0.309019 0
    outer loop
      vertex 36.5182 144.662 0.0999994
      vertex 35.9555 146.394 0
      vertex 35.9555 146.394 0.0999994
    endloop
  endfacet
  facet normal 0.951056 0.309019 0
    outer loop
      vertex 35.9555 146.394 0
      vertex 36.5182 144.662 0.0999994
      vertex 36.5182 144.662 0
    endloop
  endfacet
  facet normal -0.684545 0.72897 0
    outer loop
      vertex 60.57 140.074 0
      vertex 59.2426 138.828 0.0999994
      vertex 60.57 140.074 0.0999994
    endloop
  endfacet
  facet normal -0.684545 0.72897 0
    outer loop
      vertex 59.2426 138.828 0.0999994
      vertex 60.57 140.074 0
      vertex 59.2426 138.828 0
    endloop
  endfacet
  facet normal -0.368121 0.929778 0
    outer loop
      vertex 56.1738 136.88 0
      vertex 54.4807 136.21 0.0999994
      vertex 56.1738 136.88 0.0999994
    endloop
  endfacet
  facet normal -0.368121 0.929778 0
    outer loop
      vertex 54.4807 136.21 0.0999994
      vertex 56.1738 136.88 0
      vertex 54.4807 136.21 0
    endloop
  endfacet
  facet normal -0.248692 0.968583 0
    outer loop
      vertex 54.4807 136.21 0
      vertex 52.717 135.757 0.0999994
      vertex 54.4807 136.21 0.0999994
    endloop
  endfacet
  facet normal -0.248692 0.968583 0
    outer loop
      vertex 52.717 135.757 0.0999994
      vertex 54.4807 136.21 0
      vertex 52.717 135.757 0
    endloop
  endfacet
  facet normal -0.844328 0.535826 0
    outer loop
      vertex 61.7307 141.477 0
      vertex 62.7064 143.015 0.0999994
      vertex 62.7064 143.015 0
    endloop
  endfacet
  facet normal -0.844328 0.535826 0
    outer loop
      vertex 62.7064 143.015 0.0999994
      vertex 61.7307 141.477 0
      vertex 61.7307 141.477 0.0999994
    endloop
  endfacet
  facet normal -0.770513 0.637424 0
    outer loop
      vertex 60.57 140.074 0
      vertex 61.7307 141.477 0.0999994
      vertex 61.7307 141.477 0
    endloop
  endfacet
  facet normal -0.770513 0.637424 0
    outer loop
      vertex 61.7307 141.477 0.0999994
      vertex 60.57 140.074 0
      vertex 60.57 140.074 0.0999994
    endloop
  endfacet
  facet normal -0.951056 0.309019 0
    outer loop
      vertex 63.4818 144.662 0
      vertex 64.0445 146.394 0.0999994
      vertex 64.0445 146.394 0
    endloop
  endfacet
  facet normal -0.951056 0.309019 0
    outer loop
      vertex 64.0445 146.394 0.0999994
      vertex 63.4818 144.662 0
      vertex 63.4818 144.662 0.0999994
    endloop
  endfacet
  facet normal 0.125335 0.992114 -0
    outer loop
      vertex 49.0895 135.529 0
      vertex 47.283 135.757 0.0999994
      vertex 49.0895 135.529 0.0999994
    endloop
  endfacet
  facet normal 0.125335 0.992114 0
    outer loop
      vertex 47.283 135.757 0.0999994
      vertex 49.0895 135.529 0
      vertex 47.283 135.757 0
    endloop
  endfacet
  facet normal 0.368121 0.929778 -0
    outer loop
      vertex 45.5193 136.21 0
      vertex 43.8262 136.88 0.0999994
      vertex 45.5193 136.21 0.0999994
    endloop
  endfacet
  facet normal 0.368121 0.929778 0
    outer loop
      vertex 43.8262 136.88 0.0999994
      vertex 45.5193 136.21 0
      vertex 43.8262 136.88 0
    endloop
  endfacet
  facet normal 0.248692 0.968583 -0
    outer loop
      vertex 47.283 135.757 0
      vertex 45.5193 136.21 0.0999994
      vertex 47.283 135.757 0.0999994
    endloop
  endfacet
  facet normal 0.248692 0.968583 0
    outer loop
      vertex 45.5193 136.21 0.0999994
      vertex 47.283 135.757 0
      vertex 45.5193 136.21 0
    endloop
  endfacet
  facet normal 0.982287 0.187381 0
    outer loop
      vertex 35.9555 146.394 0.0999994
      vertex 35.6143 148.183 0
      vertex 35.6143 148.183 0.0999994
    endloop
  endfacet
  facet normal 0.982287 0.187381 0
    outer loop
      vertex 35.6143 148.183 0
      vertex 35.9555 146.394 0.0999994
      vertex 35.9555 146.394 0
    endloop
  endfacet
  facet normal 0.998027 0.0627909 0
    outer loop
      vertex 35.6143 148.183 0.0999994
      vertex 35.5 150 0
      vertex 35.5 150 0.0999994
    endloop
  endfacet
  facet normal 0.998027 0.0627909 0
    outer loop
      vertex 35.5 150 0
      vertex 35.6143 148.183 0.0999994
      vertex 35.6143 148.183 0
    endloop
  endfacet
  facet normal -0.587786 0.809016 0
    outer loop
      vertex 59.2426 138.828 0
      vertex 57.7695 137.757 0.0999994
      vertex 59.2426 138.828 0.0999994
    endloop
  endfacet
  facet normal -0.587786 0.809016 0
    outer loop
      vertex 57.7695 137.757 0.0999994
      vertex 59.2426 138.828 0
      vertex 57.7695 137.757 0
    endloop
  endfacet
  facet normal 0.481755 0.876306 -0
    outer loop
      vertex 43.8262 136.88 0
      vertex 42.2305 137.757 0.0999994
      vertex 43.8262 136.88 0.0999994
    endloop
  endfacet
  facet normal 0.481755 0.876306 0
    outer loop
      vertex 42.2305 137.757 0.0999994
      vertex 43.8262 136.88 0
      vertex 42.2305 137.757 0
    endloop
  endfacet
  facet normal 0.587786 0.809016 -0
    outer loop
      vertex 42.2305 137.757 0
      vertex 40.7574 138.828 0.0999994
      vertex 42.2305 137.757 0.0999994
    endloop
  endfacet
  facet normal 0.587786 0.809016 0
    outer loop
      vertex 40.7574 138.828 0.0999994
      vertex 42.2305 137.757 0
      vertex 40.7574 138.828 0
    endloop
  endfacet
  facet normal 0.684545 0.72897 -0
    outer loop
      vertex 40.7574 138.828 0
      vertex 39.43 140.074 0.0999994
      vertex 40.7574 138.828 0.0999994
    endloop
  endfacet
  facet normal 0.684545 0.72897 0
    outer loop
      vertex 39.43 140.074 0.0999994
      vertex 40.7574 138.828 0
      vertex 39.43 140.074 0
    endloop
  endfacet
endsolid OpenSCAD_Model
