solid OpenSCAD_Model
  facet normal 0.904827 0.425779 0
    outer loop
      vertex 56.2515 22.2715 0.0999994
      vertex 53.0166 29.1461 0
      vertex 53.0166 29.1461 0.0999994
    endloop
  endfacet
  facet normal 0.904827 0.425779 0
    outer loop
      vertex 53.0166 29.1461 0
      vertex 56.2515 22.2715 0.0999994
      vertex 56.2515 22.2715 0
    endloop
  endfacet
  facet normal 0.844328 0.535827 0
    outer loop
      vertex 53.0166 29.1461 0.0999994
      vertex 48.9455 35.561 0
      vertex 48.9455 35.561 0.0999994
    endloop
  endfacet
  facet normal 0.844328 0.535827 0
    outer loop
      vertex 48.9455 35.561 0
      vertex 53.0166 29.1461 0.0999994
      vertex 53.0166 29.1461 0
    endloop
  endfacet
  facet normal 0.24869 0.968583 -0
    outer loop
      vertex 18.6955 57.5389 0
      vertex 11.3366 59.4284 0.0999994
      vertex 18.6955 57.5389 0.0999994
    endloop
  endfacet
  facet normal 0.24869 0.968583 0
    outer loop
      vertex 11.3366 59.4284 0.0999994
      vertex 18.6955 57.5389 0
      vertex 11.3366 59.4284 0
    endloop
  endfacet
  facet normal 0.368125 0.929776 -0
    outer loop
      vertex 25.7596 54.742 0
      vertex 18.6955 57.5389 0.0999994
      vertex 25.7596 54.742 0.0999994
    endloop
  endfacet
  facet normal 0.368125 0.929776 0
    outer loop
      vertex 18.6955 57.5389 0.0999994
      vertex 25.7596 54.742 0
      vertex 18.6955 57.5389 0
    endloop
  endfacet
  facet normal -0.368125 0.929776 0
    outer loop
      vertex -18.6955 57.5389 0
      vertex -25.7596 54.742 0.0999994
      vertex -18.6955 57.5389 0.0999994
    endloop
  endfacet
  facet normal -0.368125 0.929776 0
    outer loop
      vertex -25.7596 54.742 0.0999994
      vertex -18.6955 57.5389 0
      vertex -25.7596 54.742 0
    endloop
  endfacet
  facet normal -0.904827 0.425779 0
    outer loop
      vertex -56.2515 22.2715 0
      vertex -53.0166 29.1461 0.0999994
      vertex -53.0166 29.1461 0
    endloop
  endfacet
  facet normal -0.904827 0.425779 0
    outer loop
      vertex -53.0166 29.1461 0.0999994
      vertex -56.2515 22.2715 0
      vertex -56.2515 22.2715 0.0999994
    endloop
  endfacet
  facet normal 0.481754 0.876307 -0
    outer loop
      vertex 32.4175 51.0818 0
      vertex 25.7596 54.742 0.0999994
      vertex 32.4175 51.0818 0.0999994
    endloop
  endfacet
  facet normal 0.481754 0.876307 0
    outer loop
      vertex 25.7596 54.742 0.0999994
      vertex 32.4175 51.0818 0
      vertex 25.7596 54.742 0
    endloop
  endfacet
  facet normal -0.998027 0.0627907 0
    outer loop
      vertex -60.5 0 0
      vertex -60.0229 7.58266 0.0999994
      vertex -60.0229 7.58266 0
    endloop
  endfacet
  facet normal -0.998027 0.0627907 0
    outer loop
      vertex -60.0229 7.58266 0.0999994
      vertex -60.5 0 0
      vertex -60.5 0 0.0999994
    endloop
  endfacet
  facet normal -0.770513 0.637424 0
    outer loop
      vertex -48.9455 35.561 0
      vertex -44.1026 41.4151 0.0999994
      vertex -44.1026 41.4151 0
    endloop
  endfacet
  facet normal -0.770513 0.637424 0
    outer loop
      vertex -44.1026 41.4151 0.0999994
      vertex -48.9455 35.561 0
      vertex -48.9455 35.561 0.0999994
    endloop
  endfacet
  facet normal -0.125333 0.992115 0
    outer loop
      vertex -3.79883 60.3806 0
      vertex -11.3366 59.4284 0.0999994
      vertex -3.79883 60.3806 0.0999994
    endloop
  endfacet
  facet normal -0.125333 0.992115 0
    outer loop
      vertex -11.3366 59.4284 0.0999994
      vertex -3.79883 60.3806 0
      vertex -11.3366 59.4284 0
    endloop
  endfacet
  facet normal -0.684547 0.728969 0
    outer loop
      vertex -38.5642 46.6161 0
      vertex -44.1026 41.4151 0.0999994
      vertex -38.5642 46.6161 0.0999994
    endloop
  endfacet
  facet normal -0.684547 0.728969 0
    outer loop
      vertex -44.1026 41.4151 0.0999994
      vertex -38.5642 46.6161 0
      vertex -44.1026 41.4151 0
    endloop
  endfacet
  facet normal 0.998027 0.0627907 0
    outer loop
      vertex 60.5 0 0.0999994
      vertex 60.0229 7.58266 0
      vertex 60.0229 7.58266 0.0999994
    endloop
  endfacet
  facet normal 0.998027 0.0627907 0
    outer loop
      vertex 60.0229 7.58266 0
      vertex 60.5 0 0.0999994
      vertex 60.5 0 0
    endloop
  endfacet
  facet normal 0.481754 -0.876307 0
    outer loop
      vertex 25.7596 -54.742 0
      vertex 32.4175 -51.0818 0.0999994
      vertex 25.7596 -54.742 0.0999994
    endloop
  endfacet
  facet normal 0.481754 -0.876307 0
    outer loop
      vertex 32.4175 -51.0818 0.0999994
      vertex 25.7596 -54.742 0
      vertex 32.4175 -51.0818 0
    endloop
  endfacet
  facet normal 0.951056 -0.309017 0
    outer loop
      vertex 56.2515 -22.2715 0.0999994
      vertex 58.5993 -15.0457 0
      vertex 58.5993 -15.0457 0.0999994
    endloop
  endfacet
  facet normal 0.951056 -0.309017 0
    outer loop
      vertex 58.5993 -15.0457 0
      vertex 56.2515 -22.2715 0.0999994
      vertex 56.2515 -22.2715 0
    endloop
  endfacet
  facet normal 0.982287 0.187381 0
    outer loop
      vertex 60.0229 7.58266 0.0999994
      vertex 58.5993 15.0457 0
      vertex 58.5993 15.0457 0.0999994
    endloop
  endfacet
  facet normal 0.982287 0.187381 0
    outer loop
      vertex 58.5993 15.0457 0
      vertex 60.0229 7.58266 0.0999994
      vertex 60.0229 7.58266 0
    endloop
  endfacet
  facet normal 0.951056 0.309017 0
    outer loop
      vertex 58.5993 15.0457 0.0999994
      vertex 56.2515 22.2715 0
      vertex 56.2515 22.2715 0.0999994
    endloop
  endfacet
  facet normal 0.951056 0.309017 0
    outer loop
      vertex 56.2515 22.2715 0
      vertex 58.5993 15.0457 0.0999994
      vertex 58.5993 15.0457 0
    endloop
  endfacet
  facet normal 0.684547 0.728969 -0
    outer loop
      vertex 44.1026 41.4151 0
      vertex 38.5642 46.6161 0.0999994
      vertex 44.1026 41.4151 0.0999994
    endloop
  endfacet
  facet normal 0.684547 0.728969 0
    outer loop
      vertex 38.5642 46.6161 0.0999994
      vertex 44.1026 41.4151 0
      vertex 38.5642 46.6161 0
    endloop
  endfacet
  facet normal 0 1 -0
    outer loop
      vertex 3.79883 60.3806 0
      vertex -3.79883 60.3806 0.0999994
      vertex 3.79883 60.3806 0.0999994
    endloop
  endfacet
  facet normal 0 1 0
    outer loop
      vertex -3.79883 60.3806 0.0999994
      vertex 3.79883 60.3806 0
      vertex -3.79883 60.3806 0
    endloop
  endfacet
  facet normal 0.587785 0.809017 -0
    outer loop
      vertex 38.5642 46.6161 0
      vertex 32.4175 51.0818 0.0999994
      vertex 38.5642 46.6161 0.0999994
    endloop
  endfacet
  facet normal 0.587785 0.809017 0
    outer loop
      vertex 32.4175 51.0818 0.0999994
      vertex 38.5642 46.6161 0
      vertex 32.4175 51.0818 0
    endloop
  endfacet
  facet normal 0 0 1
    outer loop
      vertex 59.5 0 0.0999994
      vertex 60.5 0 0.0999994
      vertex 60.0229 7.58266 0.0999994
    endloop
  endfacet
  facet normal 0 0 1
    outer loop
      vertex 60.5 0 0.0999994
      vertex 59.5 0 0.0999994
      vertex 60.0229 -7.58266 0.0999994
    endloop
  endfacet
  facet normal 0 0 1
    outer loop
      vertex 60.0229 7.58266 0.0999994
      vertex 59.0308 7.45733 0.0999994
      vertex 59.5 0 0.0999994
    endloop
  endfacet
  facet normal 0 0 1
    outer loop
      vertex 58.5993 15.0457 0.0999994
      vertex 59.0308 7.45733 0.0999994
      vertex 60.0229 7.58266 0.0999994
    endloop
  endfacet
  facet normal 0 0 1
    outer loop
      vertex 58.5993 15.0457 0.0999994
      vertex 57.6307 14.797 0.0999994
      vertex 59.0308 7.45733 0.0999994
    endloop
  endfacet
  facet normal 0 0 1
    outer loop
      vertex 56.2515 22.2715 0.0999994
      vertex 57.6307 14.797 0.0999994
      vertex 58.5993 15.0457 0.0999994
    endloop
  endfacet
  facet normal 0 0 1
    outer loop
      vertex 56.2515 22.2715 0.0999994
      vertex 55.3217 21.9034 0.0999994
      vertex 57.6307 14.797 0.0999994
    endloop
  endfacet
  facet normal 0 0 1
    outer loop
      vertex 53.0166 29.1461 0.0999994
      vertex 55.3217 21.9034 0.0999994
      vertex 56.2515 22.2715 0.0999994
    endloop
  endfacet
  facet normal 0 0 1
    outer loop
      vertex 53.0166 29.1461 0.0999994
      vertex 52.1402 28.6643 0.0999994
      vertex 55.3217 21.9034 0.0999994
    endloop
  endfacet
  facet normal 0 0 1
    outer loop
      vertex 48.9455 35.561 0.0999994
      vertex 52.1402 28.6643 0.0999994
      vertex 53.0166 29.1461 0.0999994
    endloop
  endfacet
  facet normal 0 0 1
    outer loop
      vertex 48.9455 35.561 0.0999994
      vertex 48.1365 34.9732 0.0999994
      vertex 52.1402 28.6643 0.0999994
    endloop
  endfacet
  facet normal 0 0 1
    outer loop
      vertex 44.1026 41.4151 0.0999994
      vertex 48.1365 34.9732 0.0999994
      vertex 48.9455 35.561 0.0999994
    endloop
  endfacet
  facet normal 0 0 1
    outer loop
      vertex 44.1026 41.4151 0.0999994
      vertex 43.3736 40.7306 0.0999994
      vertex 48.1365 34.9732 0.0999994
    endloop
  endfacet
  facet normal 0 0 1
    outer loop
      vertex 38.5642 46.6161 0.0999994
      vertex 43.3736 40.7306 0.0999994
      vertex 44.1026 41.4151 0.0999994
    endloop
  endfacet
  facet normal 0 0 1
    outer loop
      vertex 38.5642 46.6161 0.0999994
      vertex 37.9267 45.8455 0.0999994
      vertex 43.3736 40.7306 0.0999994
    endloop
  endfacet
  facet normal 0 0 1
    outer loop
      vertex 32.4175 51.0818 0.0999994
      vertex 37.9267 45.8455 0.0999994
      vertex 38.5642 46.6161 0.0999994
    endloop
  endfacet
  facet normal 0 0 1
    outer loop
      vertex 32.4175 51.0818 0.0999994
      vertex 31.8817 50.2375 0.0999994
      vertex 37.9267 45.8455 0.0999994
    endloop
  endfacet
  facet normal 0 0 1
    outer loop
      vertex 25.7596 54.742 0.0999994
      vertex 31.8817 50.2375 0.0999994
      vertex 32.4175 51.0818 0.0999994
    endloop
  endfacet
  facet normal 0 0 1
    outer loop
      vertex 25.7596 54.742 0.0999994
      vertex 25.3339 53.8372 0.0999994
      vertex 31.8817 50.2375 0.0999994
    endloop
  endfacet
  facet normal 0 0 1
    outer loop
      vertex 18.6955 57.5389 0.0999994
      vertex 25.3339 53.8372 0.0999994
      vertex 25.7596 54.742 0.0999994
    endloop
  endfacet
  facet normal 0 0 1
    outer loop
      vertex 18.6955 57.5389 0.0999994
      vertex 18.3865 56.5879 0.0999994
      vertex 25.3339 53.8372 0.0999994
    endloop
  endfacet
  facet normal 0 0 1
    outer loop
      vertex 11.3366 59.4284 0.0999994
      vertex 18.3865 56.5879 0.0999994
      vertex 18.6955 57.5389 0.0999994
    endloop
  endfacet
  facet normal 0 0 1
    outer loop
      vertex 11.3366 59.4284 0.0999994
      vertex 11.1492 58.4461 0.0999994
      vertex 18.3865 56.5879 0.0999994
    endloop
  endfacet
  facet normal 0 0 1
    outer loop
      vertex 3.79883 60.3806 0.0999994
      vertex 11.1492 58.4461 0.0999994
      vertex 11.3366 59.4284 0.0999994
    endloop
  endfacet
  facet normal 0 0 1
    outer loop
      vertex 3.79883 60.3806 0.0999994
      vertex 3.73604 59.3826 0.0999994
      vertex 11.1492 58.4461 0.0999994
    endloop
  endfacet
  facet normal 0 0 1
    outer loop
      vertex 3.79883 60.3806 0.0999994
      vertex -3.73604 59.3826 0.0999994
      vertex 3.73604 59.3826 0.0999994
    endloop
  endfacet
  facet normal -0 0 1
    outer loop
      vertex -3.79883 60.3806 0.0999994
      vertex -3.73604 59.3826 0.0999994
      vertex 3.79883 60.3806 0.0999994
    endloop
  endfacet
  facet normal 0 0 1
    outer loop
      vertex -3.79883 60.3806 0.0999994
      vertex -11.1492 58.4461 0.0999994
      vertex -3.73604 59.3826 0.0999994
    endloop
  endfacet
  facet normal -0 0 1
    outer loop
      vertex -11.3366 59.4284 0.0999994
      vertex -11.1492 58.4461 0.0999994
      vertex -3.79883 60.3806 0.0999994
    endloop
  endfacet
  facet normal 0 0 1
    outer loop
      vertex -11.3366 59.4284 0.0999994
      vertex -18.3865 56.5879 0.0999994
      vertex -11.1492 58.4461 0.0999994
    endloop
  endfacet
  facet normal -0 0 1
    outer loop
      vertex -18.6955 57.5389 0.0999994
      vertex -18.3865 56.5879 0.0999994
      vertex -11.3366 59.4284 0.0999994
    endloop
  endfacet
  facet normal 0 0 1
    outer loop
      vertex -18.6955 57.5389 0.0999994
      vertex -25.3339 53.8372 0.0999994
      vertex -18.3865 56.5879 0.0999994
    endloop
  endfacet
  facet normal -0 0 1
    outer loop
      vertex -25.7596 54.742 0.0999994
      vertex -25.3339 53.8372 0.0999994
      vertex -18.6955 57.5389 0.0999994
    endloop
  endfacet
  facet normal 0 0 1
    outer loop
      vertex -25.7596 54.742 0.0999994
      vertex -31.8817 50.2375 0.0999994
      vertex -25.3339 53.8372 0.0999994
    endloop
  endfacet
  facet normal -0 0 1
    outer loop
      vertex -32.4175 51.0818 0.0999994
      vertex -31.8817 50.2375 0.0999994
      vertex -25.7596 54.742 0.0999994
    endloop
  endfacet
  facet normal 0 0 1
    outer loop
      vertex -32.4175 51.0818 0.0999994
      vertex -37.9267 45.8455 0.0999994
      vertex -31.8817 50.2375 0.0999994
    endloop
  endfacet
  facet normal -0 0 1
    outer loop
      vertex -38.5642 46.6161 0.0999994
      vertex -37.9267 45.8455 0.0999994
      vertex -32.4175 51.0818 0.0999994
    endloop
  endfacet
  facet normal 0 0 1
    outer loop
      vertex -38.5642 46.6161 0.0999994
      vertex -43.3736 40.7306 0.0999994
      vertex -37.9267 45.8455 0.0999994
    endloop
  endfacet
  facet normal -0 0 1
    outer loop
      vertex -44.1026 41.4151 0.0999994
      vertex -43.3736 40.7306 0.0999994
      vertex -38.5642 46.6161 0.0999994
    endloop
  endfacet
  facet normal 0 0 1
    outer loop
      vertex -44.1026 41.4151 0.0999994
      vertex -48.1365 34.9732 0.0999994
      vertex -43.3736 40.7306 0.0999994
    endloop
  endfacet
  facet normal -0 0 1
    outer loop
      vertex -48.9455 35.561 0.0999994
      vertex -48.1365 34.9732 0.0999994
      vertex -44.1026 41.4151 0.0999994
    endloop
  endfacet
  facet normal 0 0 1
    outer loop
      vertex -48.9455 35.561 0.0999994
      vertex -52.1402 28.6643 0.0999994
      vertex -48.1365 34.9732 0.0999994
    endloop
  endfacet
  facet normal -0 0 1
    outer loop
      vertex -53.0166 29.1461 0.0999994
      vertex -52.1402 28.6643 0.0999994
      vertex -48.9455 35.561 0.0999994
    endloop
  endfacet
  facet normal 0 0 1
    outer loop
      vertex -53.0166 29.1461 0.0999994
      vertex -55.3217 21.9034 0.0999994
      vertex -52.1402 28.6643 0.0999994
    endloop
  endfacet
  facet normal -0 0 1
    outer loop
      vertex -56.2515 22.2715 0.0999994
      vertex -55.3217 21.9034 0.0999994
      vertex -53.0166 29.1461 0.0999994
    endloop
  endfacet
  facet normal 0 0 1
    outer loop
      vertex -56.2515 22.2715 0.0999994
      vertex -57.6307 14.797 0.0999994
      vertex -55.3217 21.9034 0.0999994
    endloop
  endfacet
  facet normal -0 0 1
    outer loop
      vertex -58.5993 15.0457 0.0999994
      vertex -57.6307 14.797 0.0999994
      vertex -56.2515 22.2715 0.0999994
    endloop
  endfacet
  facet normal 0 0 1
    outer loop
      vertex -58.5993 15.0457 0.0999994
      vertex -59.0308 7.45733 0.0999994
      vertex -57.6307 14.797 0.0999994
    endloop
  endfacet
  facet normal -0 0 1
    outer loop
      vertex -60.0229 7.58266 0.0999994
      vertex -59.0308 7.45733 0.0999994
      vertex -58.5993 15.0457 0.0999994
    endloop
  endfacet
  facet normal 0 0 1
    outer loop
      vertex -59.0308 7.45733 0.0999994
      vertex -60.0229 7.58266 0.0999994
      vertex -59.5 0 0.0999994
    endloop
  endfacet
  facet normal -0 0 1
    outer loop
      vertex 59.0308 -7.45733 0.0999994
      vertex 60.0229 -7.58266 0.0999994
      vertex 59.5 0 0.0999994
    endloop
  endfacet
  facet normal 0 0 1
    outer loop
      vertex 59.0308 -7.45733 0.0999994
      vertex 58.5993 -15.0457 0.0999994
      vertex 60.0229 -7.58266 0.0999994
    endloop
  endfacet
  facet normal -0 0 1
    outer loop
      vertex 57.6307 -14.797 0.0999994
      vertex 58.5993 -15.0457 0.0999994
      vertex 59.0308 -7.45733 0.0999994
    endloop
  endfacet
  facet normal 0 0 1
    outer loop
      vertex 57.6307 -14.797 0.0999994
      vertex 56.2515 -22.2715 0.0999994
      vertex 58.5993 -15.0457 0.0999994
    endloop
  endfacet
  facet normal -0 0 1
    outer loop
      vertex 55.3217 -21.9034 0.0999994
      vertex 56.2515 -22.2715 0.0999994
      vertex 57.6307 -14.797 0.0999994
    endloop
  endfacet
  facet normal 0 0 1
    outer loop
      vertex 55.3217 -21.9034 0.0999994
      vertex 53.0166 -29.1461 0.0999994
      vertex 56.2515 -22.2715 0.0999994
    endloop
  endfacet
  facet normal -0 0 1
    outer loop
      vertex 52.1402 -28.6643 0.0999994
      vertex 53.0166 -29.1461 0.0999994
      vertex 55.3217 -21.9034 0.0999994
    endloop
  endfacet
  facet normal 0 0 1
    outer loop
      vertex 52.1402 -28.6643 0.0999994
      vertex 48.9455 -35.561 0.0999994
      vertex 53.0166 -29.1461 0.0999994
    endloop
  endfacet
  facet normal -0 0 1
    outer loop
      vertex 48.1365 -34.9732 0.0999994
      vertex 48.9455 -35.561 0.0999994
      vertex 52.1402 -28.6643 0.0999994
    endloop
  endfacet
  facet normal 0 0 1
    outer loop
      vertex 48.1365 -34.9732 0.0999994
      vertex 44.1026 -41.4151 0.0999994
      vertex 48.9455 -35.561 0.0999994
    endloop
  endfacet
  facet normal -0 0 1
    outer loop
      vertex 43.3736 -40.7306 0.0999994
      vertex 44.1026 -41.4151 0.0999994
      vertex 48.1365 -34.9732 0.0999994
    endloop
  endfacet
  facet normal 0 0 1
    outer loop
      vertex 43.3736 -40.7306 0.0999994
      vertex 38.5642 -46.6161 0.0999994
      vertex 44.1026 -41.4151 0.0999994
    endloop
  endfacet
  facet normal -0 0 1
    outer loop
      vertex 37.9267 -45.8455 0.0999994
      vertex 38.5642 -46.6161 0.0999994
      vertex 43.3736 -40.7306 0.0999994
    endloop
  endfacet
  facet normal 0 0 1
    outer loop
      vertex 37.9267 -45.8455 0.0999994
      vertex 32.4175 -51.0818 0.0999994
      vertex 38.5642 -46.6161 0.0999994
    endloop
  endfacet
  facet normal -0 0 1
    outer loop
      vertex 31.8817 -50.2375 0.0999994
      vertex 32.4175 -51.0818 0.0999994
      vertex 37.9267 -45.8455 0.0999994
    endloop
  endfacet
  facet normal 0 0 1
    outer loop
      vertex 31.8817 -50.2375 0.0999994
      vertex 25.7596 -54.742 0.0999994
      vertex 32.4175 -51.0818 0.0999994
    endloop
  endfacet
  facet normal -0 0 1
    outer loop
      vertex 25.3339 -53.8372 0.0999994
      vertex 25.7596 -54.742 0.0999994
      vertex 31.8817 -50.2375 0.0999994
    endloop
  endfacet
  facet normal 0 0 1
    outer loop
      vertex 25.3339 -53.8372 0.0999994
      vertex 18.6955 -57.5389 0.0999994
      vertex 25.7596 -54.742 0.0999994
    endloop
  endfacet
  facet normal -0 0 1
    outer loop
      vertex 18.3865 -56.5879 0.0999994
      vertex 18.6955 -57.5389 0.0999994
      vertex 25.3339 -53.8372 0.0999994
    endloop
  endfacet
  facet normal 0 0 1
    outer loop
      vertex 18.3865 -56.5879 0.0999994
      vertex 11.3366 -59.4284 0.0999994
      vertex 18.6955 -57.5389 0.0999994
    endloop
  endfacet
  facet normal -0 0 1
    outer loop
      vertex 11.1492 -58.4461 0.0999994
      vertex 11.3366 -59.4284 0.0999994
      vertex 18.3865 -56.5879 0.0999994
    endloop
  endfacet
  facet normal 0 0 1
    outer loop
      vertex 11.1492 -58.4461 0.0999994
      vertex 3.79883 -60.3806 0.0999994
      vertex 11.3366 -59.4284 0.0999994
    endloop
  endfacet
  facet normal -0 0 1
    outer loop
      vertex 3.73604 -59.3826 0.0999994
      vertex 3.79883 -60.3806 0.0999994
      vertex 11.1492 -58.4461 0.0999994
    endloop
  endfacet
  facet normal -0 0 1
    outer loop
      vertex -3.73604 -59.3826 0.0999994
      vertex 3.79883 -60.3806 0.0999994
      vertex 3.73604 -59.3826 0.0999994
    endloop
  endfacet
  facet normal 0 0 1
    outer loop
      vertex -3.73604 -59.3826 0.0999994
      vertex -3.79883 -60.3806 0.0999994
      vertex 3.79883 -60.3806 0.0999994
    endloop
  endfacet
  facet normal 0 0 1
    outer loop
      vertex -11.1492 -58.4461 0.0999994
      vertex -3.79883 -60.3806 0.0999994
      vertex -3.73604 -59.3826 0.0999994
    endloop
  endfacet
  facet normal 0 0 1
    outer loop
      vertex -11.1492 -58.4461 0.0999994
      vertex -11.3366 -59.4284 0.0999994
      vertex -3.79883 -60.3806 0.0999994
    endloop
  endfacet
  facet normal 0 0 1
    outer loop
      vertex -18.3865 -56.5879 0.0999994
      vertex -11.3366 -59.4284 0.0999994
      vertex -11.1492 -58.4461 0.0999994
    endloop
  endfacet
  facet normal 0 0 1
    outer loop
      vertex -18.3865 -56.5879 0.0999994
      vertex -18.6955 -57.5389 0.0999994
      vertex -11.3366 -59.4284 0.0999994
    endloop
  endfacet
  facet normal 0 0 1
    outer loop
      vertex -25.3339 -53.8372 0.0999994
      vertex -18.6955 -57.5389 0.0999994
      vertex -18.3865 -56.5879 0.0999994
    endloop
  endfacet
  facet normal 0 0 1
    outer loop
      vertex -25.3339 -53.8372 0.0999994
      vertex -25.7596 -54.742 0.0999994
      vertex -18.6955 -57.5389 0.0999994
    endloop
  endfacet
  facet normal 0 0 1
    outer loop
      vertex -31.8817 -50.2375 0.0999994
      vertex -25.7596 -54.742 0.0999994
      vertex -25.3339 -53.8372 0.0999994
    endloop
  endfacet
  facet normal 0 0 1
    outer loop
      vertex -31.8817 -50.2375 0.0999994
      vertex -32.4175 -51.0818 0.0999994
      vertex -25.7596 -54.742 0.0999994
    endloop
  endfacet
  facet normal 0 0 1
    outer loop
      vertex -37.9267 -45.8455 0.0999994
      vertex -32.4175 -51.0818 0.0999994
      vertex -31.8817 -50.2375 0.0999994
    endloop
  endfacet
  facet normal 0 0 1
    outer loop
      vertex -37.9267 -45.8455 0.0999994
      vertex -38.5642 -46.6161 0.0999994
      vertex -32.4175 -51.0818 0.0999994
    endloop
  endfacet
  facet normal 0 0 1
    outer loop
      vertex -43.3736 -40.7306 0.0999994
      vertex -38.5642 -46.6161 0.0999994
      vertex -37.9267 -45.8455 0.0999994
    endloop
  endfacet
  facet normal 0 0 1
    outer loop
      vertex -43.3736 -40.7306 0.0999994
      vertex -44.1026 -41.4151 0.0999994
      vertex -38.5642 -46.6161 0.0999994
    endloop
  endfacet
  facet normal 0 0 1
    outer loop
      vertex -48.1365 -34.9732 0.0999994
      vertex -44.1026 -41.4151 0.0999994
      vertex -43.3736 -40.7306 0.0999994
    endloop
  endfacet
  facet normal 0 0 1
    outer loop
      vertex -48.1365 -34.9732 0.0999994
      vertex -48.9455 -35.561 0.0999994
      vertex -44.1026 -41.4151 0.0999994
    endloop
  endfacet
  facet normal 0 0 1
    outer loop
      vertex -52.1402 -28.6643 0.0999994
      vertex -48.9455 -35.561 0.0999994
      vertex -48.1365 -34.9732 0.0999994
    endloop
  endfacet
  facet normal 0 0 1
    outer loop
      vertex -52.1402 -28.6643 0.0999994
      vertex -53.0166 -29.1461 0.0999994
      vertex -48.9455 -35.561 0.0999994
    endloop
  endfacet
  facet normal 0 0 1
    outer loop
      vertex -55.3217 -21.9034 0.0999994
      vertex -53.0166 -29.1461 0.0999994
      vertex -52.1402 -28.6643 0.0999994
    endloop
  endfacet
  facet normal 0 0 1
    outer loop
      vertex -55.3217 -21.9034 0.0999994
      vertex -56.2515 -22.2715 0.0999994
      vertex -53.0166 -29.1461 0.0999994
    endloop
  endfacet
  facet normal 0 0 1
    outer loop
      vertex -57.6307 -14.797 0.0999994
      vertex -56.2515 -22.2715 0.0999994
      vertex -55.3217 -21.9034 0.0999994
    endloop
  endfacet
  facet normal 0 0 1
    outer loop
      vertex -57.6307 -14.797 0.0999994
      vertex -58.5993 -15.0457 0.0999994
      vertex -56.2515 -22.2715 0.0999994
    endloop
  endfacet
  facet normal 0 0 1
    outer loop
      vertex -59.0308 -7.45733 0.0999994
      vertex -58.5993 -15.0457 0.0999994
      vertex -57.6307 -14.797 0.0999994
    endloop
  endfacet
  facet normal 0 0 1
    outer loop
      vertex -60.0229 -7.58266 0.0999994
      vertex -59.0308 -7.45733 0.0999994
      vertex -59.5 0 0.0999994
    endloop
  endfacet
  facet normal 0 0 1
    outer loop
      vertex -60.5 0 0.0999994
      vertex -59.5 0 0.0999994
      vertex -60.0229 7.58266 0.0999994
    endloop
  endfacet
  facet normal 0 0 1
    outer loop
      vertex -59.0308 -7.45733 0.0999994
      vertex -60.0229 -7.58266 0.0999994
      vertex -58.5993 -15.0457 0.0999994
    endloop
  endfacet
  facet normal 0 0 1
    outer loop
      vertex -59.5 0 0.0999994
      vertex -60.5 0 0.0999994
      vertex -60.0229 -7.58266 0.0999994
    endloop
  endfacet
  facet normal -0.951056 0.309017 0
    outer loop
      vertex -58.5993 15.0457 0
      vertex -56.2515 22.2715 0.0999994
      vertex -56.2515 22.2715 0
    endloop
  endfacet
  facet normal -0.951056 0.309017 0
    outer loop
      vertex -56.2515 22.2715 0.0999994
      vertex -58.5993 15.0457 0
      vertex -58.5993 15.0457 0.0999994
    endloop
  endfacet
  facet normal -0.982287 0.187381 0
    outer loop
      vertex -60.0229 7.58266 0
      vertex -58.5993 15.0457 0.0999994
      vertex -58.5993 15.0457 0
    endloop
  endfacet
  facet normal -0.982287 0.187381 0
    outer loop
      vertex -58.5993 15.0457 0.0999994
      vertex -60.0229 7.58266 0
      vertex -60.0229 7.58266 0.0999994
    endloop
  endfacet
  facet normal -0.844328 0.535827 0
    outer loop
      vertex -53.0166 29.1461 0
      vertex -48.9455 35.561 0.0999994
      vertex -48.9455 35.561 0
    endloop
  endfacet
  facet normal -0.844328 0.535827 0
    outer loop
      vertex -48.9455 35.561 0.0999994
      vertex -53.0166 29.1461 0
      vertex -53.0166 29.1461 0.0999994
    endloop
  endfacet
  facet normal -0.24869 0.968583 0
    outer loop
      vertex -11.3366 59.4284 0
      vertex -18.6955 57.5389 0.0999994
      vertex -11.3366 59.4284 0.0999994
    endloop
  endfacet
  facet normal -0.24869 0.968583 0
    outer loop
      vertex -18.6955 57.5389 0.0999994
      vertex -11.3366 59.4284 0
      vertex -18.6955 57.5389 0
    endloop
  endfacet
  facet normal -0.587785 0.809017 0
    outer loop
      vertex -32.4175 51.0818 0
      vertex -38.5642 46.6161 0.0999994
      vertex -32.4175 51.0818 0.0999994
    endloop
  endfacet
  facet normal -0.587785 0.809017 0
    outer loop
      vertex -38.5642 46.6161 0.0999994
      vertex -32.4175 51.0818 0
      vertex -38.5642 46.6161 0
    endloop
  endfacet
  facet normal -0.481754 0.876307 0
    outer loop
      vertex -25.7596 54.742 0
      vertex -32.4175 51.0818 0.0999994
      vertex -25.7596 54.742 0.0999994
    endloop
  endfacet
  facet normal -0.481754 0.876307 0
    outer loop
      vertex -32.4175 51.0818 0.0999994
      vertex -25.7596 54.742 0
      vertex -32.4175 51.0818 0
    endloop
  endfacet
  facet normal 0.998027 -0.0627907 0
    outer loop
      vertex 60.0229 -7.58266 0.0999994
      vertex 60.5 0 0
      vertex 60.5 0 0.0999994
    endloop
  endfacet
  facet normal 0.998027 -0.0627907 0
    outer loop
      vertex 60.5 0 0
      vertex 60.0229 -7.58266 0.0999994
      vertex 60.0229 -7.58266 0
    endloop
  endfacet
  facet normal -0.998027 -0.0627907 0
    outer loop
      vertex -60.0229 -7.58266 0
      vertex -60.5 0 0.0999994
      vertex -60.5 0 0
    endloop
  endfacet
  facet normal -0.998027 -0.0627907 0
    outer loop
      vertex -60.5 0 0.0999994
      vertex -60.0229 -7.58266 0
      vertex -60.0229 -7.58266 0.0999994
    endloop
  endfacet
  facet normal 0.125333 -0.992115 0
    outer loop
      vertex 3.79883 -60.3806 0
      vertex 11.3366 -59.4284 0.0999994
      vertex 3.79883 -60.3806 0.0999994
    endloop
  endfacet
  facet normal 0.125333 -0.992115 0
    outer loop
      vertex 11.3366 -59.4284 0.0999994
      vertex 3.79883 -60.3806 0
      vertex 11.3366 -59.4284 0
    endloop
  endfacet
  facet normal 0.770513 0.637424 0
    outer loop
      vertex 48.9455 35.561 0.0999994
      vertex 44.1026 41.4151 0
      vertex 44.1026 41.4151 0.0999994
    endloop
  endfacet
  facet normal 0.770513 0.637424 0
    outer loop
      vertex 44.1026 41.4151 0
      vertex 48.9455 35.561 0.0999994
      vertex 48.9455 35.561 0
    endloop
  endfacet
  facet normal 0.125333 0.992115 -0
    outer loop
      vertex 11.3366 59.4284 0
      vertex 3.79883 60.3806 0.0999994
      vertex 11.3366 59.4284 0.0999994
    endloop
  endfacet
  facet normal 0.125333 0.992115 0
    outer loop
      vertex 3.79883 60.3806 0.0999994
      vertex 11.3366 59.4284 0
      vertex 3.79883 60.3806 0
    endloop
  endfacet
  facet normal 0.982287 -0.187381 0
    outer loop
      vertex 58.5993 -15.0457 0.0999994
      vertex 60.0229 -7.58266 0
      vertex 60.0229 -7.58266 0.0999994
    endloop
  endfacet
  facet normal 0.982287 -0.187381 0
    outer loop
      vertex 60.0229 -7.58266 0
      vertex 58.5993 -15.0457 0.0999994
      vertex 58.5993 -15.0457 0
    endloop
  endfacet
  facet normal 0.844328 -0.535827 0
    outer loop
      vertex 48.9455 -35.561 0.0999994
      vertex 53.0166 -29.1461 0
      vertex 53.0166 -29.1461 0.0999994
    endloop
  endfacet
  facet normal 0.844328 -0.535827 0
    outer loop
      vertex 53.0166 -29.1461 0
      vertex 48.9455 -35.561 0.0999994
      vertex 48.9455 -35.561 0
    endloop
  endfacet
  facet normal 0.904827 -0.425779 0
    outer loop
      vertex 53.0166 -29.1461 0.0999994
      vertex 56.2515 -22.2715 0
      vertex 56.2515 -22.2715 0.0999994
    endloop
  endfacet
  facet normal 0.904827 -0.425779 0
    outer loop
      vertex 56.2515 -22.2715 0
      vertex 53.0166 -29.1461 0.0999994
      vertex 53.0166 -29.1461 0
    endloop
  endfacet
  facet normal -0.125333 -0.992115 0
    outer loop
      vertex -11.3366 -59.4284 0
      vertex -3.79883 -60.3806 0.0999994
      vertex -11.3366 -59.4284 0.0999994
    endloop
  endfacet
  facet normal -0.125333 -0.992115 -0
    outer loop
      vertex -3.79883 -60.3806 0.0999994
      vertex -11.3366 -59.4284 0
      vertex -3.79883 -60.3806 0
    endloop
  endfacet
  facet normal -0.770513 -0.637424 0
    outer loop
      vertex -44.1026 -41.4151 0
      vertex -48.9455 -35.561 0.0999994
      vertex -48.9455 -35.561 0
    endloop
  endfacet
  facet normal -0.770513 -0.637424 0
    outer loop
      vertex -48.9455 -35.561 0.0999994
      vertex -44.1026 -41.4151 0
      vertex -44.1026 -41.4151 0.0999994
    endloop
  endfacet
  facet normal 0.368125 -0.929776 0
    outer loop
      vertex 18.6955 -57.5389 0
      vertex 25.7596 -54.742 0.0999994
      vertex 18.6955 -57.5389 0.0999994
    endloop
  endfacet
  facet normal 0.368125 -0.929776 0
    outer loop
      vertex 25.7596 -54.742 0.0999994
      vertex 18.6955 -57.5389 0
      vertex 25.7596 -54.742 0
    endloop
  endfacet
  facet normal 0.24869 -0.968583 0
    outer loop
      vertex 11.3366 -59.4284 0
      vertex 18.6955 -57.5389 0.0999994
      vertex 11.3366 -59.4284 0.0999994
    endloop
  endfacet
  facet normal 0.24869 -0.968583 0
    outer loop
      vertex 18.6955 -57.5389 0.0999994
      vertex 11.3366 -59.4284 0
      vertex 18.6955 -57.5389 0
    endloop
  endfacet
  facet normal 0.684547 -0.728969 0
    outer loop
      vertex 38.5642 -46.6161 0
      vertex 44.1026 -41.4151 0.0999994
      vertex 38.5642 -46.6161 0.0999994
    endloop
  endfacet
  facet normal 0.684547 -0.728969 0
    outer loop
      vertex 44.1026 -41.4151 0.0999994
      vertex 38.5642 -46.6161 0
      vertex 44.1026 -41.4151 0
    endloop
  endfacet
  facet normal -0.368125 -0.929776 0
    outer loop
      vertex -25.7596 -54.742 0
      vertex -18.6955 -57.5389 0.0999994
      vertex -25.7596 -54.742 0.0999994
    endloop
  endfacet
  facet normal -0.368125 -0.929776 -0
    outer loop
      vertex -18.6955 -57.5389 0.0999994
      vertex -25.7596 -54.742 0
      vertex -18.6955 -57.5389 0
    endloop
  endfacet
  facet normal 0 -1 0
    outer loop
      vertex -3.79883 -60.3806 0
      vertex 3.79883 -60.3806 0.0999994
      vertex -3.79883 -60.3806 0.0999994
    endloop
  endfacet
  facet normal 0 -1 -0
    outer loop
      vertex 3.79883 -60.3806 0.0999994
      vertex -3.79883 -60.3806 0
      vertex 3.79883 -60.3806 0
    endloop
  endfacet
  facet normal -0.24869 -0.968583 0
    outer loop
      vertex -18.6955 -57.5389 0
      vertex -11.3366 -59.4284 0.0999994
      vertex -18.6955 -57.5389 0.0999994
    endloop
  endfacet
  facet normal -0.24869 -0.968583 -0
    outer loop
      vertex -11.3366 -59.4284 0.0999994
      vertex -18.6955 -57.5389 0
      vertex -11.3366 -59.4284 0
    endloop
  endfacet
  facet normal -0.951056 -0.309017 0
    outer loop
      vertex -56.2515 -22.2715 0
      vertex -58.5993 -15.0457 0.0999994
      vertex -58.5993 -15.0457 0
    endloop
  endfacet
  facet normal -0.951056 -0.309017 0
    outer loop
      vertex -58.5993 -15.0457 0.0999994
      vertex -56.2515 -22.2715 0
      vertex -56.2515 -22.2715 0.0999994
    endloop
  endfacet
  facet normal 0 0 -1
    outer loop
      vertex 59.5 0 0
      vertex 60.5 0 0
      vertex 60.0229 -7.58266 0
    endloop
  endfacet
  facet normal 0 0 -1
    outer loop
      vertex 60.5 0 0
      vertex 59.5 0 0
      vertex 60.0229 7.58266 0
    endloop
  endfacet
  facet normal 0 0 -1
    outer loop
      vertex 60.0229 -7.58266 0
      vertex 59.0308 -7.45733 0
      vertex 59.5 0 0
    endloop
  endfacet
  facet normal 0 0 -1
    outer loop
      vertex 58.5993 -15.0457 0
      vertex 59.0308 -7.45733 0
      vertex 60.0229 -7.58266 0
    endloop
  endfacet
  facet normal 0 0 -1
    outer loop
      vertex 58.5993 -15.0457 0
      vertex 57.6307 -14.797 0
      vertex 59.0308 -7.45733 0
    endloop
  endfacet
  facet normal 0 0 -1
    outer loop
      vertex 56.2515 -22.2715 0
      vertex 57.6307 -14.797 0
      vertex 58.5993 -15.0457 0
    endloop
  endfacet
  facet normal 0 0 -1
    outer loop
      vertex 56.2515 -22.2715 0
      vertex 55.3217 -21.9034 0
      vertex 57.6307 -14.797 0
    endloop
  endfacet
  facet normal 0 0 -1
    outer loop
      vertex 53.0166 -29.1461 0
      vertex 55.3217 -21.9034 0
      vertex 56.2515 -22.2715 0
    endloop
  endfacet
  facet normal 0 0 -1
    outer loop
      vertex 53.0166 -29.1461 0
      vertex 52.1402 -28.6643 0
      vertex 55.3217 -21.9034 0
    endloop
  endfacet
  facet normal 0 0 -1
    outer loop
      vertex 48.9455 -35.561 0
      vertex 52.1402 -28.6643 0
      vertex 53.0166 -29.1461 0
    endloop
  endfacet
  facet normal 0 0 -1
    outer loop
      vertex 48.9455 -35.561 0
      vertex 48.1365 -34.9732 0
      vertex 52.1402 -28.6643 0
    endloop
  endfacet
  facet normal 0 0 -1
    outer loop
      vertex 44.1026 -41.4151 0
      vertex 48.1365 -34.9732 0
      vertex 48.9455 -35.561 0
    endloop
  endfacet
  facet normal 0 0 -1
    outer loop
      vertex 44.1026 -41.4151 0
      vertex 43.3736 -40.7306 0
      vertex 48.1365 -34.9732 0
    endloop
  endfacet
  facet normal 0 0 -1
    outer loop
      vertex 38.5642 -46.6161 0
      vertex 43.3736 -40.7306 0
      vertex 44.1026 -41.4151 0
    endloop
  endfacet
  facet normal 0 0 -1
    outer loop
      vertex 38.5642 -46.6161 0
      vertex 37.9267 -45.8455 0
      vertex 43.3736 -40.7306 0
    endloop
  endfacet
  facet normal 0 0 -1
    outer loop
      vertex 32.4175 -51.0818 0
      vertex 37.9267 -45.8455 0
      vertex 38.5642 -46.6161 0
    endloop
  endfacet
  facet normal 0 0 -1
    outer loop
      vertex 32.4175 -51.0818 0
      vertex 31.8817 -50.2375 0
      vertex 37.9267 -45.8455 0
    endloop
  endfacet
  facet normal 0 0 -1
    outer loop
      vertex 25.7596 -54.742 0
      vertex 31.8817 -50.2375 0
      vertex 32.4175 -51.0818 0
    endloop
  endfacet
  facet normal 0 0 -1
    outer loop
      vertex 25.7596 -54.742 0
      vertex 25.3339 -53.8372 0
      vertex 31.8817 -50.2375 0
    endloop
  endfacet
  facet normal 0 0 -1
    outer loop
      vertex 18.6955 -57.5389 0
      vertex 25.3339 -53.8372 0
      vertex 25.7596 -54.742 0
    endloop
  endfacet
  facet normal 0 0 -1
    outer loop
      vertex 18.6955 -57.5389 0
      vertex 18.3865 -56.5879 0
      vertex 25.3339 -53.8372 0
    endloop
  endfacet
  facet normal 0 0 -1
    outer loop
      vertex 11.3366 -59.4284 0
      vertex 18.3865 -56.5879 0
      vertex 18.6955 -57.5389 0
    endloop
  endfacet
  facet normal 0 0 -1
    outer loop
      vertex 11.3366 -59.4284 0
      vertex 11.1492 -58.4461 0
      vertex 18.3865 -56.5879 0
    endloop
  endfacet
  facet normal 0 0 -1
    outer loop
      vertex 3.79883 -60.3806 0
      vertex 11.1492 -58.4461 0
      vertex 11.3366 -59.4284 0
    endloop
  endfacet
  facet normal 0 0 -1
    outer loop
      vertex 3.79883 -60.3806 0
      vertex 3.73604 -59.3826 0
      vertex 11.1492 -58.4461 0
    endloop
  endfacet
  facet normal 0 0 -1
    outer loop
      vertex 3.79883 -60.3806 0
      vertex -3.73604 -59.3826 0
      vertex 3.73604 -59.3826 0
    endloop
  endfacet
  facet normal 0 0 -1
    outer loop
      vertex -3.79883 -60.3806 0
      vertex -3.73604 -59.3826 0
      vertex 3.79883 -60.3806 0
    endloop
  endfacet
  facet normal 0 0 -1
    outer loop
      vertex -3.79883 -60.3806 0
      vertex -11.1492 -58.4461 0
      vertex -3.73604 -59.3826 0
    endloop
  endfacet
  facet normal 0 0 -1
    outer loop
      vertex -11.3366 -59.4284 0
      vertex -11.1492 -58.4461 0
      vertex -3.79883 -60.3806 0
    endloop
  endfacet
  facet normal 0 0 -1
    outer loop
      vertex -11.3366 -59.4284 0
      vertex -18.3865 -56.5879 0
      vertex -11.1492 -58.4461 0
    endloop
  endfacet
  facet normal 0 0 -1
    outer loop
      vertex -18.6955 -57.5389 0
      vertex -18.3865 -56.5879 0
      vertex -11.3366 -59.4284 0
    endloop
  endfacet
  facet normal 0 0 -1
    outer loop
      vertex -18.6955 -57.5389 0
      vertex -25.3339 -53.8372 0
      vertex -18.3865 -56.5879 0
    endloop
  endfacet
  facet normal 0 0 -1
    outer loop
      vertex -25.7596 -54.742 0
      vertex -25.3339 -53.8372 0
      vertex -18.6955 -57.5389 0
    endloop
  endfacet
  facet normal 0 0 -1
    outer loop
      vertex -25.7596 -54.742 0
      vertex -31.8817 -50.2375 0
      vertex -25.3339 -53.8372 0
    endloop
  endfacet
  facet normal 0 0 -1
    outer loop
      vertex -32.4175 -51.0818 0
      vertex -31.8817 -50.2375 0
      vertex -25.7596 -54.742 0
    endloop
  endfacet
  facet normal 0 0 -1
    outer loop
      vertex -32.4175 -51.0818 0
      vertex -37.9267 -45.8455 0
      vertex -31.8817 -50.2375 0
    endloop
  endfacet
  facet normal 0 0 -1
    outer loop
      vertex -38.5642 -46.6161 0
      vertex -37.9267 -45.8455 0
      vertex -32.4175 -51.0818 0
    endloop
  endfacet
  facet normal 0 0 -1
    outer loop
      vertex -38.5642 -46.6161 0
      vertex -43.3736 -40.7306 0
      vertex -37.9267 -45.8455 0
    endloop
  endfacet
  facet normal 0 0 -1
    outer loop
      vertex -44.1026 -41.4151 0
      vertex -43.3736 -40.7306 0
      vertex -38.5642 -46.6161 0
    endloop
  endfacet
  facet normal 0 0 -1
    outer loop
      vertex -44.1026 -41.4151 0
      vertex -48.1365 -34.9732 0
      vertex -43.3736 -40.7306 0
    endloop
  endfacet
  facet normal 0 0 -1
    outer loop
      vertex -48.9455 -35.561 0
      vertex -48.1365 -34.9732 0
      vertex -44.1026 -41.4151 0
    endloop
  endfacet
  facet normal 0 0 -1
    outer loop
      vertex -48.9455 -35.561 0
      vertex -52.1402 -28.6643 0
      vertex -48.1365 -34.9732 0
    endloop
  endfacet
  facet normal 0 0 -1
    outer loop
      vertex -53.0166 -29.1461 0
      vertex -52.1402 -28.6643 0
      vertex -48.9455 -35.561 0
    endloop
  endfacet
  facet normal 0 0 -1
    outer loop
      vertex -53.0166 -29.1461 0
      vertex -55.3217 -21.9034 0
      vertex -52.1402 -28.6643 0
    endloop
  endfacet
  facet normal 0 0 -1
    outer loop
      vertex -56.2515 -22.2715 0
      vertex -55.3217 -21.9034 0
      vertex -53.0166 -29.1461 0
    endloop
  endfacet
  facet normal 0 0 -1
    outer loop
      vertex -56.2515 -22.2715 0
      vertex -57.6307 -14.797 0
      vertex -55.3217 -21.9034 0
    endloop
  endfacet
  facet normal 0 0 -1
    outer loop
      vertex -58.5993 -15.0457 0
      vertex -57.6307 -14.797 0
      vertex -56.2515 -22.2715 0
    endloop
  endfacet
  facet normal 0 0 -1
    outer loop
      vertex -58.5993 -15.0457 0
      vertex -59.0308 -7.45733 0
      vertex -57.6307 -14.797 0
    endloop
  endfacet
  facet normal 0 0 -1
    outer loop
      vertex -60.0229 -7.58266 0
      vertex -59.0308 -7.45733 0
      vertex -58.5993 -15.0457 0
    endloop
  endfacet
  facet normal -0 0 -1
    outer loop
      vertex -59.0308 -7.45733 0
      vertex -60.0229 -7.58266 0
      vertex -59.5 0 0
    endloop
  endfacet
  facet normal 0 0 -1
    outer loop
      vertex 59.0308 7.45733 0
      vertex 60.0229 7.58266 0
      vertex 59.5 0 0
    endloop
  endfacet
  facet normal 0 0 -1
    outer loop
      vertex 59.0308 7.45733 0
      vertex 58.5993 15.0457 0
      vertex 60.0229 7.58266 0
    endloop
  endfacet
  facet normal 0 0 -1
    outer loop
      vertex 57.6307 14.797 0
      vertex 58.5993 15.0457 0
      vertex 59.0308 7.45733 0
    endloop
  endfacet
  facet normal 0 0 -1
    outer loop
      vertex 57.6307 14.797 0
      vertex 56.2515 22.2715 0
      vertex 58.5993 15.0457 0
    endloop
  endfacet
  facet normal 0 0 -1
    outer loop
      vertex 55.3217 21.9034 0
      vertex 56.2515 22.2715 0
      vertex 57.6307 14.797 0
    endloop
  endfacet
  facet normal 0 0 -1
    outer loop
      vertex 55.3217 21.9034 0
      vertex 53.0166 29.1461 0
      vertex 56.2515 22.2715 0
    endloop
  endfacet
  facet normal 0 0 -1
    outer loop
      vertex 52.1402 28.6643 0
      vertex 53.0166 29.1461 0
      vertex 55.3217 21.9034 0
    endloop
  endfacet
  facet normal 0 0 -1
    outer loop
      vertex 52.1402 28.6643 0
      vertex 48.9455 35.561 0
      vertex 53.0166 29.1461 0
    endloop
  endfacet
  facet normal 0 0 -1
    outer loop
      vertex 48.1365 34.9732 0
      vertex 48.9455 35.561 0
      vertex 52.1402 28.6643 0
    endloop
  endfacet
  facet normal 0 0 -1
    outer loop
      vertex 48.1365 34.9732 0
      vertex 44.1026 41.4151 0
      vertex 48.9455 35.561 0
    endloop
  endfacet
  facet normal 0 0 -1
    outer loop
      vertex 43.3736 40.7306 0
      vertex 44.1026 41.4151 0
      vertex 48.1365 34.9732 0
    endloop
  endfacet
  facet normal 0 0 -1
    outer loop
      vertex 43.3736 40.7306 0
      vertex 38.5642 46.6161 0
      vertex 44.1026 41.4151 0
    endloop
  endfacet
  facet normal 0 0 -1
    outer loop
      vertex 37.9267 45.8455 0
      vertex 38.5642 46.6161 0
      vertex 43.3736 40.7306 0
    endloop
  endfacet
  facet normal 0 0 -1
    outer loop
      vertex 37.9267 45.8455 0
      vertex 32.4175 51.0818 0
      vertex 38.5642 46.6161 0
    endloop
  endfacet
  facet normal 0 0 -1
    outer loop
      vertex 31.8817 50.2375 0
      vertex 32.4175 51.0818 0
      vertex 37.9267 45.8455 0
    endloop
  endfacet
  facet normal 0 0 -1
    outer loop
      vertex 31.8817 50.2375 0
      vertex 25.7596 54.742 0
      vertex 32.4175 51.0818 0
    endloop
  endfacet
  facet normal 0 0 -1
    outer loop
      vertex 25.3339 53.8372 0
      vertex 25.7596 54.742 0
      vertex 31.8817 50.2375 0
    endloop
  endfacet
  facet normal 0 0 -1
    outer loop
      vertex 25.3339 53.8372 0
      vertex 18.6955 57.5389 0
      vertex 25.7596 54.742 0
    endloop
  endfacet
  facet normal 0 0 -1
    outer loop
      vertex 18.3865 56.5879 0
      vertex 18.6955 57.5389 0
      vertex 25.3339 53.8372 0
    endloop
  endfacet
  facet normal 0 0 -1
    outer loop
      vertex 18.3865 56.5879 0
      vertex 11.3366 59.4284 0
      vertex 18.6955 57.5389 0
    endloop
  endfacet
  facet normal 0 0 -1
    outer loop
      vertex 11.1492 58.4461 0
      vertex 11.3366 59.4284 0
      vertex 18.3865 56.5879 0
    endloop
  endfacet
  facet normal 0 0 -1
    outer loop
      vertex 11.1492 58.4461 0
      vertex 3.79883 60.3806 0
      vertex 11.3366 59.4284 0
    endloop
  endfacet
  facet normal 0 0 -1
    outer loop
      vertex 3.73604 59.3826 0
      vertex 3.79883 60.3806 0
      vertex 11.1492 58.4461 0
    endloop
  endfacet
  facet normal 0 0 -1
    outer loop
      vertex -3.73604 59.3826 0
      vertex 3.79883 60.3806 0
      vertex 3.73604 59.3826 0
    endloop
  endfacet
  facet normal 0 0 -1
    outer loop
      vertex -3.73604 59.3826 0
      vertex -3.79883 60.3806 0
      vertex 3.79883 60.3806 0
    endloop
  endfacet
  facet normal 0 0 -1
    outer loop
      vertex -11.1492 58.4461 0
      vertex -3.79883 60.3806 0
      vertex -3.73604 59.3826 0
    endloop
  endfacet
  facet normal 0 0 -1
    outer loop
      vertex -11.1492 58.4461 0
      vertex -11.3366 59.4284 0
      vertex -3.79883 60.3806 0
    endloop
  endfacet
  facet normal 0 0 -1
    outer loop
      vertex -18.3865 56.5879 0
      vertex -11.3366 59.4284 0
      vertex -11.1492 58.4461 0
    endloop
  endfacet
  facet normal 0 0 -1
    outer loop
      vertex -18.3865 56.5879 0
      vertex -18.6955 57.5389 0
      vertex -11.3366 59.4284 0
    endloop
  endfacet
  facet normal 0 0 -1
    outer loop
      vertex -25.3339 53.8372 0
      vertex -18.6955 57.5389 0
      vertex -18.3865 56.5879 0
    endloop
  endfacet
  facet normal 0 0 -1
    outer loop
      vertex -25.3339 53.8372 0
      vertex -25.7596 54.742 0
      vertex -18.6955 57.5389 0
    endloop
  endfacet
  facet normal 0 0 -1
    outer loop
      vertex -31.8817 50.2375 0
      vertex -25.7596 54.742 0
      vertex -25.3339 53.8372 0
    endloop
  endfacet
  facet normal 0 0 -1
    outer loop
      vertex -31.8817 50.2375 0
      vertex -32.4175 51.0818 0
      vertex -25.7596 54.742 0
    endloop
  endfacet
  facet normal 0 0 -1
    outer loop
      vertex -37.9267 45.8455 0
      vertex -32.4175 51.0818 0
      vertex -31.8817 50.2375 0
    endloop
  endfacet
  facet normal 0 0 -1
    outer loop
      vertex -37.9267 45.8455 0
      vertex -38.5642 46.6161 0
      vertex -32.4175 51.0818 0
    endloop
  endfacet
  facet normal 0 0 -1
    outer loop
      vertex -43.3736 40.7306 0
      vertex -38.5642 46.6161 0
      vertex -37.9267 45.8455 0
    endloop
  endfacet
  facet normal 0 0 -1
    outer loop
      vertex -43.3736 40.7306 0
      vertex -44.1026 41.4151 0
      vertex -38.5642 46.6161 0
    endloop
  endfacet
  facet normal 0 0 -1
    outer loop
      vertex -48.1365 34.9732 0
      vertex -44.1026 41.4151 0
      vertex -43.3736 40.7306 0
    endloop
  endfacet
  facet normal 0 0 -1
    outer loop
      vertex -48.1365 34.9732 0
      vertex -48.9455 35.561 0
      vertex -44.1026 41.4151 0
    endloop
  endfacet
  facet normal 0 0 -1
    outer loop
      vertex -52.1402 28.6643 0
      vertex -48.9455 35.561 0
      vertex -48.1365 34.9732 0
    endloop
  endfacet
  facet normal 0 0 -1
    outer loop
      vertex -52.1402 28.6643 0
      vertex -53.0166 29.1461 0
      vertex -48.9455 35.561 0
    endloop
  endfacet
  facet normal 0 0 -1
    outer loop
      vertex -55.3217 21.9034 0
      vertex -53.0166 29.1461 0
      vertex -52.1402 28.6643 0
    endloop
  endfacet
  facet normal 0 0 -1
    outer loop
      vertex -55.3217 21.9034 0
      vertex -56.2515 22.2715 0
      vertex -53.0166 29.1461 0
    endloop
  endfacet
  facet normal 0 0 -1
    outer loop
      vertex -57.6307 14.797 0
      vertex -56.2515 22.2715 0
      vertex -55.3217 21.9034 0
    endloop
  endfacet
  facet normal 0 0 -1
    outer loop
      vertex -57.6307 14.797 0
      vertex -58.5993 15.0457 0
      vertex -56.2515 22.2715 0
    endloop
  endfacet
  facet normal 0 0 -1
    outer loop
      vertex -59.0308 7.45733 0
      vertex -58.5993 15.0457 0
      vertex -57.6307 14.797 0
    endloop
  endfacet
  facet normal 0 0 -1
    outer loop
      vertex -60.0229 7.58266 0
      vertex -59.0308 7.45733 0
      vertex -59.5 0 0
    endloop
  endfacet
  facet normal 0 0 -1
    outer loop
      vertex -60.5 0 0
      vertex -59.5 0 0
      vertex -60.0229 -7.58266 0
    endloop
  endfacet
  facet normal 0 0 -1
    outer loop
      vertex -59.0308 7.45733 0
      vertex -60.0229 7.58266 0
      vertex -58.5993 15.0457 0
    endloop
  endfacet
  facet normal 0 0 -1
    outer loop
      vertex -59.5 0 0
      vertex -60.5 0 0
      vertex -60.0229 7.58266 0
    endloop
  endfacet
  facet normal -0.982287 -0.187381 0
    outer loop
      vertex -58.5993 -15.0457 0
      vertex -60.0229 -7.58266 0.0999994
      vertex -60.0229 -7.58266 0
    endloop
  endfacet
  facet normal -0.982287 -0.187381 0
    outer loop
      vertex -60.0229 -7.58266 0.0999994
      vertex -58.5993 -15.0457 0
      vertex -58.5993 -15.0457 0.0999994
    endloop
  endfacet
  facet normal -0.904827 -0.425779 0
    outer loop
      vertex -53.0166 -29.1461 0
      vertex -56.2515 -22.2715 0.0999994
      vertex -56.2515 -22.2715 0
    endloop
  endfacet
  facet normal -0.904827 -0.425779 0
    outer loop
      vertex -56.2515 -22.2715 0.0999994
      vertex -53.0166 -29.1461 0
      vertex -53.0166 -29.1461 0.0999994
    endloop
  endfacet
  facet normal -0.844328 -0.535827 0
    outer loop
      vertex -48.9455 -35.561 0
      vertex -53.0166 -29.1461 0.0999994
      vertex -53.0166 -29.1461 0
    endloop
  endfacet
  facet normal -0.844328 -0.535827 0
    outer loop
      vertex -53.0166 -29.1461 0.0999994
      vertex -48.9455 -35.561 0
      vertex -48.9455 -35.561 0.0999994
    endloop
  endfacet
  facet normal 0.770513 -0.637424 0
    outer loop
      vertex 44.1026 -41.4151 0.0999994
      vertex 48.9455 -35.561 0
      vertex 48.9455 -35.561 0.0999994
    endloop
  endfacet
  facet normal 0.770513 -0.637424 0
    outer loop
      vertex 48.9455 -35.561 0
      vertex 44.1026 -41.4151 0.0999994
      vertex 44.1026 -41.4151 0
    endloop
  endfacet
  facet normal 0.587785 -0.809017 0
    outer loop
      vertex 32.4175 -51.0818 0
      vertex 38.5642 -46.6161 0.0999994
      vertex 32.4175 -51.0818 0.0999994
    endloop
  endfacet
  facet normal 0.587785 -0.809017 0
    outer loop
      vertex 38.5642 -46.6161 0.0999994
      vertex 32.4175 -51.0818 0
      vertex 38.5642 -46.6161 0
    endloop
  endfacet
  facet normal -0.684547 -0.728969 0
    outer loop
      vertex -44.1026 -41.4151 0
      vertex -38.5642 -46.6161 0.0999994
      vertex -44.1026 -41.4151 0.0999994
    endloop
  endfacet
  facet normal -0.684547 -0.728969 -0
    outer loop
      vertex -38.5642 -46.6161 0.0999994
      vertex -44.1026 -41.4151 0
      vertex -38.5642 -46.6161 0
    endloop
  endfacet
  facet normal -0.481754 -0.876307 0
    outer loop
      vertex -32.4175 -51.0818 0
      vertex -25.7596 -54.742 0.0999994
      vertex -32.4175 -51.0818 0.0999994
    endloop
  endfacet
  facet normal -0.481754 -0.876307 -0
    outer loop
      vertex -25.7596 -54.742 0.0999994
      vertex -32.4175 -51.0818 0
      vertex -25.7596 -54.742 0
    endloop
  endfacet
  facet normal -0.587785 -0.809017 0
    outer loop
      vertex -38.5642 -46.6161 0
      vertex -32.4175 -51.0818 0.0999994
      vertex -38.5642 -46.6161 0.0999994
    endloop
  endfacet
  facet normal -0.587785 -0.809017 -0
    outer loop
      vertex -32.4175 -51.0818 0.0999994
      vertex -38.5642 -46.6161 0
      vertex -32.4175 -51.0818 0
    endloop
  endfacet
  facet normal -0.998027 -0.0627908 0
    outer loop
      vertex 59.5 0 0
      vertex 59.0308 7.45733 0.0999994
      vertex 59.0308 7.45733 0
    endloop
  endfacet
  facet normal -0.998027 -0.0627908 0
    outer loop
      vertex 59.0308 7.45733 0.0999994
      vertex 59.5 0 0
      vertex 59.5 0 0.0999994
    endloop
  endfacet
  facet normal 0.998027 -0.0627908 0
    outer loop
      vertex -59.5 0 0.0999994
      vertex -59.0308 7.45733 0
      vertex -59.0308 7.45733 0.0999994
    endloop
  endfacet
  facet normal 0.998027 -0.0627908 0
    outer loop
      vertex -59.0308 7.45733 0
      vertex -59.5 0 0.0999994
      vertex -59.5 0 0
    endloop
  endfacet
  facet normal 0 -1 0
    outer loop
      vertex -3.73604 59.3826 0
      vertex 3.73604 59.3826 0.0999994
      vertex -3.73604 59.3826 0.0999994
    endloop
  endfacet
  facet normal 0 -1 -0
    outer loop
      vertex 3.73604 59.3826 0.0999994
      vertex -3.73604 59.3826 0
      vertex 3.73604 59.3826 0
    endloop
  endfacet
  facet normal 0 1 -0
    outer loop
      vertex 3.73604 -59.3826 0
      vertex -3.73604 -59.3826 0.0999994
      vertex 3.73604 -59.3826 0.0999994
    endloop
  endfacet
  facet normal 0 1 0
    outer loop
      vertex -3.73604 -59.3826 0.0999994
      vertex 3.73604 -59.3826 0
      vertex -3.73604 -59.3826 0
    endloop
  endfacet
  facet normal -0.684547 -0.728969 0
    outer loop
      vertex 37.9267 45.8455 0
      vertex 43.3736 40.7306 0.0999994
      vertex 37.9267 45.8455 0.0999994
    endloop
  endfacet
  facet normal -0.684547 -0.728969 -0
    outer loop
      vertex 43.3736 40.7306 0.0999994
      vertex 37.9267 45.8455 0
      vertex 43.3736 40.7306 0
    endloop
  endfacet
  facet normal 0.684547 -0.728969 0
    outer loop
      vertex -43.3736 40.7306 0
      vertex -37.9267 45.8455 0.0999994
      vertex -43.3736 40.7306 0.0999994
    endloop
  endfacet
  facet normal 0.684547 -0.728969 0
    outer loop
      vertex -37.9267 45.8455 0.0999994
      vertex -43.3736 40.7306 0
      vertex -37.9267 45.8455 0
    endloop
  endfacet
  facet normal 0.368125 -0.929776 0
    outer loop
      vertex -25.3339 53.8372 0
      vertex -18.3865 56.5879 0.0999994
      vertex -25.3339 53.8372 0.0999994
    endloop
  endfacet
  facet normal 0.368125 -0.929776 0
    outer loop
      vertex -18.3865 56.5879 0.0999994
      vertex -25.3339 53.8372 0
      vertex -18.3865 56.5879 0
    endloop
  endfacet
  facet normal -0.844328 0.535827 0
    outer loop
      vertex 48.1365 -34.9732 0
      vertex 52.1402 -28.6643 0.0999994
      vertex 52.1402 -28.6643 0
    endloop
  endfacet
  facet normal -0.844328 0.535827 0
    outer loop
      vertex 52.1402 -28.6643 0.0999994
      vertex 48.1365 -34.9732 0
      vertex 48.1365 -34.9732 0.0999994
    endloop
  endfacet
  facet normal -0.904827 -0.425779 0
    outer loop
      vertex 55.3217 21.9034 0
      vertex 52.1402 28.6643 0.0999994
      vertex 52.1402 28.6643 0
    endloop
  endfacet
  facet normal -0.904827 -0.425779 0
    outer loop
      vertex 52.1402 28.6643 0.0999994
      vertex 55.3217 21.9034 0
      vertex 55.3217 21.9034 0.0999994
    endloop
  endfacet
  facet normal -0.982287 -0.187381 0
    outer loop
      vertex 59.0308 7.45733 0
      vertex 57.6307 14.797 0.0999994
      vertex 57.6307 14.797 0
    endloop
  endfacet
  facet normal -0.982287 -0.187381 0
    outer loop
      vertex 57.6307 14.797 0.0999994
      vertex 59.0308 7.45733 0
      vertex 59.0308 7.45733 0.0999994
    endloop
  endfacet
  facet normal -0.844328 -0.535827 0
    outer loop
      vertex 52.1402 28.6643 0
      vertex 48.1365 34.9732 0.0999994
      vertex 48.1365 34.9732 0
    endloop
  endfacet
  facet normal -0.844328 -0.535827 0
    outer loop
      vertex 48.1365 34.9732 0.0999994
      vertex 52.1402 28.6643 0
      vertex 52.1402 28.6643 0.0999994
    endloop
  endfacet
  facet normal -0.368125 -0.929776 0
    outer loop
      vertex 18.3865 56.5879 0
      vertex 25.3339 53.8372 0.0999994
      vertex 18.3865 56.5879 0.0999994
    endloop
  endfacet
  facet normal -0.368125 -0.929776 -0
    outer loop
      vertex 25.3339 53.8372 0.0999994
      vertex 18.3865 56.5879 0
      vertex 25.3339 53.8372 0
    endloop
  endfacet
  facet normal -0.587785 -0.809017 0
    outer loop
      vertex 31.8817 50.2375 0
      vertex 37.9267 45.8455 0.0999994
      vertex 31.8817 50.2375 0.0999994
    endloop
  endfacet
  facet normal -0.587785 -0.809017 -0
    outer loop
      vertex 37.9267 45.8455 0.0999994
      vertex 31.8817 50.2375 0
      vertex 37.9267 45.8455 0
    endloop
  endfacet
  facet normal 0.904827 -0.425779 0
    outer loop
      vertex -55.3217 21.9034 0.0999994
      vertex -52.1402 28.6643 0
      vertex -52.1402 28.6643 0.0999994
    endloop
  endfacet
  facet normal 0.904827 -0.425779 0
    outer loop
      vertex -52.1402 28.6643 0
      vertex -55.3217 21.9034 0.0999994
      vertex -55.3217 21.9034 0
    endloop
  endfacet
  facet normal 0.844328 -0.535827 0
    outer loop
      vertex -52.1402 28.6643 0.0999994
      vertex -48.1365 34.9732 0
      vertex -48.1365 34.9732 0.0999994
    endloop
  endfacet
  facet normal 0.844328 -0.535827 0
    outer loop
      vertex -48.1365 34.9732 0
      vertex -52.1402 28.6643 0.0999994
      vertex -52.1402 28.6643 0
    endloop
  endfacet
  facet normal 0.587785 -0.809017 0
    outer loop
      vertex -37.9267 45.8455 0
      vertex -31.8817 50.2375 0.0999994
      vertex -37.9267 45.8455 0.0999994
    endloop
  endfacet
  facet normal 0.587785 -0.809017 0
    outer loop
      vertex -31.8817 50.2375 0.0999994
      vertex -37.9267 45.8455 0
      vertex -31.8817 50.2375 0
    endloop
  endfacet
  facet normal 0.24869 -0.968583 0
    outer loop
      vertex -18.3865 56.5879 0
      vertex -11.1492 58.4461 0.0999994
      vertex -18.3865 56.5879 0.0999994
    endloop
  endfacet
  facet normal 0.24869 -0.968583 0
    outer loop
      vertex -11.1492 58.4461 0.0999994
      vertex -18.3865 56.5879 0
      vertex -11.1492 58.4461 0
    endloop
  endfacet
  facet normal -0.368125 0.929776 0
    outer loop
      vertex 25.3339 -53.8372 0
      vertex 18.3865 -56.5879 0.0999994
      vertex 25.3339 -53.8372 0.0999994
    endloop
  endfacet
  facet normal -0.368125 0.929776 0
    outer loop
      vertex 18.3865 -56.5879 0.0999994
      vertex 25.3339 -53.8372 0
      vertex 18.3865 -56.5879 0
    endloop
  endfacet
  facet normal -0.951056 -0.309017 0
    outer loop
      vertex 57.6307 14.797 0
      vertex 55.3217 21.9034 0.0999994
      vertex 55.3217 21.9034 0
    endloop
  endfacet
  facet normal -0.951056 -0.309017 0
    outer loop
      vertex 55.3217 21.9034 0.0999994
      vertex 57.6307 14.797 0
      vertex 57.6307 14.797 0.0999994
    endloop
  endfacet
  facet normal -0.770513 -0.637424 0
    outer loop
      vertex 48.1365 34.9732 0
      vertex 43.3736 40.7306 0.0999994
      vertex 43.3736 40.7306 0
    endloop
  endfacet
  facet normal -0.770513 -0.637424 0
    outer loop
      vertex 43.3736 40.7306 0.0999994
      vertex 48.1365 34.9732 0
      vertex 48.1365 34.9732 0.0999994
    endloop
  endfacet
  facet normal -0.24869 -0.968583 0
    outer loop
      vertex 11.1492 58.4461 0
      vertex 18.3865 56.5879 0.0999994
      vertex 11.1492 58.4461 0.0999994
    endloop
  endfacet
  facet normal -0.24869 -0.968583 -0
    outer loop
      vertex 18.3865 56.5879 0.0999994
      vertex 11.1492 58.4461 0
      vertex 18.3865 56.5879 0
    endloop
  endfacet
  facet normal -0.125333 -0.992115 0
    outer loop
      vertex 3.73604 59.3826 0
      vertex 11.1492 58.4461 0.0999994
      vertex 3.73604 59.3826 0.0999994
    endloop
  endfacet
  facet normal -0.125333 -0.992115 -0
    outer loop
      vertex 11.1492 58.4461 0.0999994
      vertex 3.73604 59.3826 0
      vertex 11.1492 58.4461 0
    endloop
  endfacet
  facet normal 0.770513 -0.637424 0
    outer loop
      vertex -48.1365 34.9732 0.0999994
      vertex -43.3736 40.7306 0
      vertex -43.3736 40.7306 0.0999994
    endloop
  endfacet
  facet normal 0.770513 -0.637424 0
    outer loop
      vertex -43.3736 40.7306 0
      vertex -48.1365 34.9732 0.0999994
      vertex -48.1365 34.9732 0
    endloop
  endfacet
  facet normal 0.951056 -0.309017 0
    outer loop
      vertex -57.6307 14.797 0.0999994
      vertex -55.3217 21.9034 0
      vertex -55.3217 21.9034 0.0999994
    endloop
  endfacet
  facet normal 0.951056 -0.309017 0
    outer loop
      vertex -55.3217 21.9034 0
      vertex -57.6307 14.797 0.0999994
      vertex -57.6307 14.797 0
    endloop
  endfacet
  facet normal 0.982287 -0.187381 0
    outer loop
      vertex -59.0308 7.45733 0.0999994
      vertex -57.6307 14.797 0
      vertex -57.6307 14.797 0.0999994
    endloop
  endfacet
  facet normal 0.982287 -0.187381 0
    outer loop
      vertex -57.6307 14.797 0
      vertex -59.0308 7.45733 0.0999994
      vertex -59.0308 7.45733 0
    endloop
  endfacet
  facet normal 0.481753 -0.876307 0
    outer loop
      vertex -31.8817 50.2375 0
      vertex -25.3339 53.8372 0.0999994
      vertex -31.8817 50.2375 0.0999994
    endloop
  endfacet
  facet normal 0.481753 -0.876307 0
    outer loop
      vertex -25.3339 53.8372 0.0999994
      vertex -31.8817 50.2375 0
      vertex -25.3339 53.8372 0
    endloop
  endfacet
  facet normal 0.125333 -0.992115 0
    outer loop
      vertex -11.1492 58.4461 0
      vertex -3.73604 59.3826 0.0999994
      vertex -11.1492 58.4461 0.0999994
    endloop
  endfacet
  facet normal 0.125333 -0.992115 0
    outer loop
      vertex -3.73604 59.3826 0.0999994
      vertex -11.1492 58.4461 0
      vertex -3.73604 59.3826 0
    endloop
  endfacet
  facet normal -0.998027 0.0627908 0
    outer loop
      vertex 59.0308 -7.45733 0
      vertex 59.5 0 0.0999994
      vertex 59.5 0 0
    endloop
  endfacet
  facet normal -0.998027 0.0627908 0
    outer loop
      vertex 59.5 0 0.0999994
      vertex 59.0308 -7.45733 0
      vertex 59.0308 -7.45733 0.0999994
    endloop
  endfacet
  facet normal -0.770513 0.637424 0
    outer loop
      vertex 43.3736 -40.7306 0
      vertex 48.1365 -34.9732 0.0999994
      vertex 48.1365 -34.9732 0
    endloop
  endfacet
  facet normal -0.770513 0.637424 0
    outer loop
      vertex 48.1365 -34.9732 0.0999994
      vertex 43.3736 -40.7306 0
      vertex 43.3736 -40.7306 0.0999994
    endloop
  endfacet
  facet normal 0.844328 0.535827 0
    outer loop
      vertex -48.1365 -34.9732 0.0999994
      vertex -52.1402 -28.6643 0
      vertex -52.1402 -28.6643 0.0999994
    endloop
  endfacet
  facet normal 0.844328 0.535827 0
    outer loop
      vertex -52.1402 -28.6643 0
      vertex -48.1365 -34.9732 0.0999994
      vertex -48.1365 -34.9732 0
    endloop
  endfacet
  facet normal 0.904827 0.425779 0
    outer loop
      vertex -52.1402 -28.6643 0.0999994
      vertex -55.3217 -21.9034 0
      vertex -55.3217 -21.9034 0.0999994
    endloop
  endfacet
  facet normal 0.904827 0.425779 0
    outer loop
      vertex -55.3217 -21.9034 0
      vertex -52.1402 -28.6643 0.0999994
      vertex -52.1402 -28.6643 0
    endloop
  endfacet
  facet normal -0.481753 0.876307 0
    outer loop
      vertex 31.8817 -50.2375 0
      vertex 25.3339 -53.8372 0.0999994
      vertex 31.8817 -50.2375 0.0999994
    endloop
  endfacet
  facet normal -0.481753 0.876307 0
    outer loop
      vertex 25.3339 -53.8372 0.0999994
      vertex 31.8817 -50.2375 0
      vertex 25.3339 -53.8372 0
    endloop
  endfacet
  facet normal -0.481753 -0.876307 0
    outer loop
      vertex 25.3339 53.8372 0
      vertex 31.8817 50.2375 0.0999994
      vertex 25.3339 53.8372 0.0999994
    endloop
  endfacet
  facet normal -0.481753 -0.876307 -0
    outer loop
      vertex 31.8817 50.2375 0.0999994
      vertex 25.3339 53.8372 0
      vertex 31.8817 50.2375 0
    endloop
  endfacet
  facet normal -0.951056 0.309017 0
    outer loop
      vertex 55.3217 -21.9034 0
      vertex 57.6307 -14.797 0.0999994
      vertex 57.6307 -14.797 0
    endloop
  endfacet
  facet normal -0.951056 0.309017 0
    outer loop
      vertex 57.6307 -14.797 0.0999994
      vertex 55.3217 -21.9034 0
      vertex 55.3217 -21.9034 0.0999994
    endloop
  endfacet
  facet normal -0.982287 0.187381 0
    outer loop
      vertex 57.6307 -14.797 0
      vertex 59.0308 -7.45733 0.0999994
      vertex 59.0308 -7.45733 0
    endloop
  endfacet
  facet normal -0.982287 0.187381 0
    outer loop
      vertex 59.0308 -7.45733 0.0999994
      vertex 57.6307 -14.797 0
      vertex 57.6307 -14.797 0.0999994
    endloop
  endfacet
  facet normal -0.587785 0.809017 0
    outer loop
      vertex 37.9267 -45.8455 0
      vertex 31.8817 -50.2375 0.0999994
      vertex 37.9267 -45.8455 0.0999994
    endloop
  endfacet
  facet normal -0.587785 0.809017 0
    outer loop
      vertex 31.8817 -50.2375 0.0999994
      vertex 37.9267 -45.8455 0
      vertex 31.8817 -50.2375 0
    endloop
  endfacet
  facet normal -0.684547 0.728969 0
    outer loop
      vertex 43.3736 -40.7306 0
      vertex 37.9267 -45.8455 0.0999994
      vertex 43.3736 -40.7306 0.0999994
    endloop
  endfacet
  facet normal -0.684547 0.728969 0
    outer loop
      vertex 37.9267 -45.8455 0.0999994
      vertex 43.3736 -40.7306 0
      vertex 37.9267 -45.8455 0
    endloop
  endfacet
  facet normal -0.904827 0.425779 0
    outer loop
      vertex 52.1402 -28.6643 0
      vertex 55.3217 -21.9034 0.0999994
      vertex 55.3217 -21.9034 0
    endloop
  endfacet
  facet normal -0.904827 0.425779 0
    outer loop
      vertex 55.3217 -21.9034 0.0999994
      vertex 52.1402 -28.6643 0
      vertex 52.1402 -28.6643 0.0999994
    endloop
  endfacet
  facet normal 0.368125 0.929776 -0
    outer loop
      vertex -18.3865 -56.5879 0
      vertex -25.3339 -53.8372 0.0999994
      vertex -18.3865 -56.5879 0.0999994
    endloop
  endfacet
  facet normal 0.368125 0.929776 0
    outer loop
      vertex -25.3339 -53.8372 0.0999994
      vertex -18.3865 -56.5879 0
      vertex -25.3339 -53.8372 0
    endloop
  endfacet
  facet normal 0.770513 0.637424 0
    outer loop
      vertex -43.3736 -40.7306 0.0999994
      vertex -48.1365 -34.9732 0
      vertex -48.1365 -34.9732 0.0999994
    endloop
  endfacet
  facet normal 0.770513 0.637424 0
    outer loop
      vertex -48.1365 -34.9732 0
      vertex -43.3736 -40.7306 0.0999994
      vertex -43.3736 -40.7306 0
    endloop
  endfacet
  facet normal 0.125333 0.992115 -0
    outer loop
      vertex -3.73604 -59.3826 0
      vertex -11.1492 -58.4461 0.0999994
      vertex -3.73604 -59.3826 0.0999994
    endloop
  endfacet
  facet normal 0.125333 0.992115 0
    outer loop
      vertex -11.1492 -58.4461 0.0999994
      vertex -3.73604 -59.3826 0
      vertex -11.1492 -58.4461 0
    endloop
  endfacet
  facet normal 0.587785 0.809017 -0
    outer loop
      vertex -31.8817 -50.2375 0
      vertex -37.9267 -45.8455 0.0999994
      vertex -31.8817 -50.2375 0.0999994
    endloop
  endfacet
  facet normal 0.587785 0.809017 0
    outer loop
      vertex -37.9267 -45.8455 0.0999994
      vertex -31.8817 -50.2375 0
      vertex -37.9267 -45.8455 0
    endloop
  endfacet
  facet normal 0.24869 0.968583 -0
    outer loop
      vertex -11.1492 -58.4461 0
      vertex -18.3865 -56.5879 0.0999994
      vertex -11.1492 -58.4461 0.0999994
    endloop
  endfacet
  facet normal 0.24869 0.968583 0
    outer loop
      vertex -18.3865 -56.5879 0.0999994
      vertex -11.1492 -58.4461 0
      vertex -18.3865 -56.5879 0
    endloop
  endfacet
  facet normal 0.684547 0.728969 -0
    outer loop
      vertex -37.9267 -45.8455 0
      vertex -43.3736 -40.7306 0.0999994
      vertex -37.9267 -45.8455 0.0999994
    endloop
  endfacet
  facet normal 0.684547 0.728969 0
    outer loop
      vertex -43.3736 -40.7306 0.0999994
      vertex -37.9267 -45.8455 0
      vertex -43.3736 -40.7306 0
    endloop
  endfacet
  facet normal 0.951056 0.309017 0
    outer loop
      vertex -55.3217 -21.9034 0.0999994
      vertex -57.6307 -14.797 0
      vertex -57.6307 -14.797 0.0999994
    endloop
  endfacet
  facet normal 0.951056 0.309017 0
    outer loop
      vertex -57.6307 -14.797 0
      vertex -55.3217 -21.9034 0.0999994
      vertex -55.3217 -21.9034 0
    endloop
  endfacet
  facet normal 0.982287 0.187381 0
    outer loop
      vertex -57.6307 -14.797 0.0999994
      vertex -59.0308 -7.45733 0
      vertex -59.0308 -7.45733 0.0999994
    endloop
  endfacet
  facet normal 0.982287 0.187381 0
    outer loop
      vertex -59.0308 -7.45733 0
      vertex -57.6307 -14.797 0.0999994
      vertex -57.6307 -14.797 0
    endloop
  endfacet
  facet normal 0.998027 0.0627908 0
    outer loop
      vertex -59.0308 -7.45733 0.0999994
      vertex -59.5 0 0
      vertex -59.5 0 0.0999994
    endloop
  endfacet
  facet normal 0.998027 0.0627908 0
    outer loop
      vertex -59.5 0 0
      vertex -59.0308 -7.45733 0.0999994
      vertex -59.0308 -7.45733 0
    endloop
  endfacet
  facet normal -0.24869 0.968583 0
    outer loop
      vertex 18.3865 -56.5879 0
      vertex 11.1492 -58.4461 0.0999994
      vertex 18.3865 -56.5879 0.0999994
    endloop
  endfacet
  facet normal -0.24869 0.968583 0
    outer loop
      vertex 11.1492 -58.4461 0.0999994
      vertex 18.3865 -56.5879 0
      vertex 11.1492 -58.4461 0
    endloop
  endfacet
  facet normal -0.125333 0.992115 0
    outer loop
      vertex 11.1492 -58.4461 0
      vertex 3.73604 -59.3826 0.0999994
      vertex 11.1492 -58.4461 0.0999994
    endloop
  endfacet
  facet normal -0.125333 0.992115 0
    outer loop
      vertex 3.73604 -59.3826 0.0999994
      vertex 11.1492 -58.4461 0
      vertex 3.73604 -59.3826 0
    endloop
  endfacet
  facet normal 0.481753 0.876307 -0
    outer loop
      vertex -25.3339 -53.8372 0
      vertex -31.8817 -50.2375 0.0999994
      vertex -25.3339 -53.8372 0.0999994
    endloop
  endfacet
  facet normal 0.481753 0.876307 0
    outer loop
      vertex -31.8817 -50.2375 0.0999994
      vertex -25.3339 -53.8372 0
      vertex -31.8817 -50.2375 0
    endloop
  endfacet
endsolid OpenSCAD_Model
