solid OpenSCAD_Model
  facet normal 0.146951 0.250472 0.956906
    outer loop
      vertex -18.9737 -56.921 80.4013
      vertex -9.41383 -60.1076 79.7673
      vertex 66.6667 200 0
    endloop
  endfacet
  facet normal -0.812586 0.570318 0.120169
    outer loop
      vertex -95.0985 -31.546 5.04844
      vertex -93.898 -31.9462 15.0657
      vertex 66.6667 200 0
    endloop
  endfacet
  facet normal 0.999432 -0.0336883 0
    outer loop
      vertex 57.1512 -82.296 5.04844
      vertex 57.1512 -82.296 0
      vertex 66.6667 200 0
    endloop
  endfacet
  facet normal -0.489961 0.462776 0.738767
    outer loop
      vertex -71.1878 -39.5163 58.61
      vertex -63.8072 -41.9765 65.046
      vertex 66.6667 200 0
    endloop
  endfacet
  facet normal 0.752903 0.0484881 0.656342
    outer loop
      vertex 33.2404 -74.3257 58.61
      vertex 39.7975 -76.5114 51.2497
      vertex 66.6667 200 0
    endloop
  endfacet
  facet normal -0.819759 0.572709 0
    outer loop
      vertex 66.6667 200 0
      vertex -95.0985 -31.546 0
      vertex -95.0985 -31.546 5.04844
    endloop
  endfacet
  facet normal -0.707248 0.535205 0.461904
    outer loop
      vertex -87.9897 -33.9157 34.2332
      vertex -83.3751 -35.4539 43.0812
      vertex 66.6667 200 0
    endloop
  endfacet
  facet normal -0.191244 0.363204 0.911871
    outer loop
      vertex -47.0525 -47.5614 74.7552
      vertex -37.9426 -50.598 77.8754
      vertex 66.6667 200 0
    endloop
  endfacet
  facet normal 0.477124 0.140415 0.867546
    outer loop
      vertex 9.10517 -66.2806 74.7552
      vertex 17.7723 -69.1696 70.4562
      vertex 66.6667 200 0
    endloop
  endfacet
  facet normal 0.935557 -0.0123966 0.352957
    outer loop
      vertex 50.0424 -79.9263 34.2332
      vertex 53.5685 -81.1017 24.8454
      vertex 66.6667 200 0
    endloop
  endfacet
  facet normal -0.316228 -0.948683 3.09195e-06
    outer loop
      vertex -28.5335 -53.7344 79.7673
      vertex -9.41383 -60.1076 79.7673
      vertex -18.9737 -56.921 80.4013
    endloop
  endfacet
  facet normal -0.316228 -0.948683 -5.59154e-07
    outer loop
      vertex -37.9426 -50.598 77.8754
      vertex -9.41383 -60.1076 79.7673
      vertex -28.5335 -53.7344 79.7673
    endloop
  endfacet
  facet normal -0.316228 -0.948683 -9.7861e-07
    outer loop
      vertex -37.9426 -50.598 77.8754
      vertex -0.00475167 -63.244 77.8754
      vertex -9.41383 -60.1076 79.7673
    endloop
  endfacet
  facet normal -0.316228 -0.948683 3.51459e-07
    outer loop
      vertex -47.0525 -47.5614 74.7552
      vertex -0.00475167 -63.244 77.8754
      vertex -37.9426 -50.598 77.8754
    endloop
  endfacet
  facet normal -0.316228 -0.948683 -1.95717e-07
    outer loop
      vertex -47.0525 -47.5614 74.7552
      vertex 9.10517 -66.2806 74.7552
      vertex -0.00475167 -63.244 77.8754
    endloop
  endfacet
  facet normal -0.316228 -0.948683 -9.74397e-08
    outer loop
      vertex -55.7196 -44.6724 70.4562
      vertex 9.10517 -66.2806 74.7552
      vertex -47.0525 -47.5614 74.7552
    endloop
  endfacet
  facet normal -0.316228 -0.948683 7.55105e-07
    outer loop
      vertex -55.7196 -44.6724 70.4562
      vertex 17.7723 -69.1696 70.4562
      vertex 9.10517 -66.2806 74.7552
    endloop
  endfacet
  facet normal -0.316228 -0.948683 1.22687e-08
    outer loop
      vertex -63.8072 -41.9765 65.046
      vertex 17.7723 -69.1696 70.4562
      vertex -55.7196 -44.6724 70.4562
    endloop
  endfacet
  facet normal -0.316228 -0.948683 -7.20065e-07
    outer loop
      vertex -63.8072 -41.9765 65.046
      vertex 25.8599 -71.8655 65.046
      vertex 17.7723 -69.1696 70.4562
    endloop
  endfacet
  facet normal -0.316228 -0.948683 -6.0858e-07
    outer loop
      vertex -71.1878 -39.5163 58.61
      vertex 25.8599 -71.8655 65.046
      vertex -63.8072 -41.9765 65.046
    endloop
  endfacet
  facet normal -0.316228 -0.948683 0
    outer loop
      vertex -71.1878 -39.5163 58.61
      vertex 33.2404 -74.3257 58.61
      vertex 25.8599 -71.8655 65.046
    endloop
  endfacet
  facet normal -0.316228 -0.948683 0
    outer loop
      vertex -77.7449 -37.3306 51.2497
      vertex 33.2404 -74.3257 58.61
      vertex -71.1878 -39.5163 58.61
    endloop
  endfacet
  facet normal -0.316228 -0.948683 0
    outer loop
      vertex -77.7449 -37.3306 51.2497
      vertex 39.7975 -76.5114 51.2497
      vertex 33.2404 -74.3257 58.61
    endloop
  endfacet
  facet normal -0.316228 -0.948683 0
    outer loop
      vertex -83.3751 -35.4539 43.0812
      vertex 39.7975 -76.5114 51.2497
      vertex -77.7449 -37.3306 51.2497
    endloop
  endfacet
  facet normal -0.316228 -0.948683 -1.41222e-07
    outer loop
      vertex -83.3751 -35.4539 43.0812
      vertex 45.4278 -78.3881 43.0812
      vertex 39.7975 -76.5114 51.2497
    endloop
  endfacet
  facet normal -0.316228 -0.948683 1.31453e-07
    outer loop
      vertex -87.9897 -33.9157 34.2332
      vertex 45.4278 -78.3881 43.0812
      vertex -83.3751 -35.4539 43.0812
    endloop
  endfacet
  facet normal -0.316228 -0.948683 4.04456e-07
    outer loop
      vertex -87.9897 -33.9157 34.2332
      vertex 50.0424 -79.9263 34.2332
      vertex 45.4278 -78.3881 43.0812
    endloop
  endfacet
  facet normal -0.316228 -0.948683 3.88775e-07
    outer loop
      vertex -91.5159 -32.7403 24.8454
      vertex 50.0424 -79.9263 34.2332
      vertex -87.9897 -33.9157 34.2332
    endloop
  endfacet
  facet normal -0.316228 -0.948683 1.3162e-07
    outer loop
      vertex -91.5159 -32.7403 24.8454
      vertex 53.5685 -81.1017 24.8454
      vertex 50.0424 -79.9263 34.2332
    endloop
  endfacet
  facet normal -0.316228 -0.948683 -1.87049e-07
    outer loop
      vertex -93.898 -31.9462 15.0657
      vertex 53.5685 -81.1017 24.8454
      vertex -91.5159 -32.7403 24.8454
    endloop
  endfacet
  facet normal -0.316228 -0.948683 -9.80436e-10
    outer loop
      vertex -93.898 -31.9462 15.0657
      vertex 55.9507 -81.8958 15.0657
      vertex 53.5685 -81.1017 24.8454
    endloop
  endfacet
  facet normal -0.316229 -0.948683 0
    outer loop
      vertex -95.0985 -31.546 0
      vertex -93.898 -31.9462 15.0657
      vertex -95.0985 -31.546 5.04844
    endloop
  endfacet
  facet normal -0.316228 -0.948683 -1.19785e-07
    outer loop
      vertex -93.898 -31.9462 15.0657
      vertex -95.0985 -31.546 0
      vertex 55.9507 -81.8958 15.0657
    endloop
  endfacet
  facet normal -0.316228 -0.948683 -8.07015e-08
    outer loop
      vertex 57.1512 -82.296 0
      vertex 55.9507 -81.8958 15.0657
      vertex -95.0985 -31.546 0
    endloop
  endfacet
  facet normal -0.316227 -0.948684 0
    outer loop
      vertex 55.9507 -81.8958 15.0657
      vertex 57.1512 -82.296 0
      vertex 57.1512 -82.296 5.04844
    endloop
  endfacet
  facet normal -0.791182 0.563183 0.238443
    outer loop
      vertex -93.898 -31.9462 15.0657
      vertex -91.5159 -32.7403 24.8454
      vertex 66.6667 200 0
    endloop
  endfacet
  facet normal -0.646042 0.514803 0.563567
    outer loop
      vertex -83.3751 -35.4539 43.0812
      vertex -77.7449 -37.3306 51.2497
      vertex 66.6667 200 0
    endloop
  endfacet
  facet normal -0.29745 0.398606 0.867546
    outer loop
      vertex -55.7196 -44.6724 70.4562
      vertex -47.0525 -47.5614 74.7552
      vertex 66.6667 200 0
    endloop
  endfacet
  facet normal -0.0806045 0.326324 0.941815
    outer loop
      vertex -37.9426 -50.598 77.8754
      vertex -28.5335 -53.7344 79.7673
      vertex 66.6667 200 0
    endloop
  endfacet
  facet normal 0.370917 0.175817 0.911871
    outer loop
      vertex -0.00475167 -63.244 77.8754
      vertex 9.10517 -66.2806 74.7552
      vertex 66.6667 200 0
    endloop
  endfacet
  facet normal 0.577222 0.107048 0.80954
    outer loop
      vertex 17.7723 -69.1696 70.4562
      vertex 25.8599 -71.8655 65.046
      vertex 66.6667 200 0
    endloop
  endfacet
  facet normal 0.886922 0.00381531 0.461904
    outer loop
      vertex 45.4278 -78.3881 43.0812
      vertex 50.0424 -79.9263 34.2332
      vertex 66.6667 200 0
    endloop
  endfacet
  facet normal 0.99226 -0.0312975 0.120169
    outer loop
      vertex 55.9507 -81.8958 15.0657
      vertex 57.1512 -82.296 5.04844
      vertex 66.6667 200 0
    endloop
  endfacet
  facet normal -0.755884 0.551417 0.352957
    outer loop
      vertex -91.5159 -32.7403 24.8454
      vertex -87.9897 -33.9157 34.2332
      vertex 66.6667 200 0
    endloop
  endfacet
  facet normal -0.57323 0.490532 0.656342
    outer loop
      vertex -77.7449 -37.3306 51.2497
      vertex -71.1878 -39.5163 58.61
      vertex 66.6667 200 0
    endloop
  endfacet
  facet normal -0.397549 0.431972 0.80954
    outer loop
      vertex -63.8072 -41.9765 65.046
      vertex -55.7196 -44.6724 70.4562
      vertex 66.6667 200 0
    endloop
  endfacet
  facet normal 0.0327228 0.288548 0.956906
    outer loop
      vertex -28.5335 -53.7344 79.7673
      vertex -18.9737 -56.921 80.4013
      vertex 66.6667 200 0
    endloop
  endfacet
  facet normal 0.260278 0.212696 0.941815
    outer loop
      vertex -9.41383 -60.1076 79.7673
      vertex -0.00475167 -63.244 77.8754
      vertex 66.6667 200 0
    endloop
  endfacet
  facet normal 0.669635 0.0762442 0.738767
    outer loop
      vertex 25.8599 -71.8655 65.046
      vertex 33.2404 -74.3257 58.61
      vertex 66.6667 200 0
    endloop
  endfacet
  facet normal 0.825715 0.0242175 0.563567
    outer loop
      vertex 39.7975 -76.5114 51.2497
      vertex 45.4278 -78.3881 43.0812
      vertex 66.6667 200 0
    endloop
  endfacet
  facet normal 0.970856 -0.0241628 0.238443
    outer loop
      vertex 53.5685 -81.1017 24.8454
      vertex 55.9507 -81.8958 15.0657
      vertex 66.6667 200 0
    endloop
  endfacet
  facet normal 0 0 -1
    outer loop
      vertex 66.6667 200 0
      vertex 57.1512 -82.296 0
      vertex -95.0985 -31.546 0
    endloop
  endfacet
endsolid OpenSCAD_Model
