solid OpenSCAD_Model
  facet normal 0.84662 0.532197 0
    outer loop
      vertex 240.266 79.5767 0.05
      vertex 239.734 80.4233 -0.05
      vertex 239.734 80.4233 0.05
    endloop
  endfacet
  facet normal 0.84662 0.532197 0
    outer loop
      vertex 239.734 80.4233 -0.05
      vertex 240.266 79.5767 0.05
      vertex 240.266 79.5767 -0.05
    endloop
  endfacet
  facet normal -0.846615 -0.532205 0
    outer loop
      vertex -32.4918 -91.8862 -0.05
      vertex -33.024 -91.0396 0.05
      vertex -33.024 -91.0396 -0.05
    endloop
  endfacet
  facet normal -0.846615 -0.532205 0
    outer loop
      vertex -33.024 -91.0396 0.05
      vertex -32.4918 -91.8862 -0.05
      vertex -32.4918 -91.8862 0.05
    endloop
  endfacet
  facet normal 0.532205 -0.846615 0
    outer loop
      vertex -32.4918 -91.8862 -0.05
      vertex 240.266 79.5767 0.05
      vertex -32.4918 -91.8862 0.05
    endloop
  endfacet
  facet normal 0.532205 -0.846615 0
    outer loop
      vertex 240.266 79.5767 0.05
      vertex -32.4918 -91.8862 -0.05
      vertex 240.266 79.5767 -0.05
    endloop
  endfacet
  facet normal 0 0 -1
    outer loop
      vertex -32.4918 -91.8862 -0.05
      vertex 239.734 80.4233 -0.05
      vertex 240.266 79.5767 -0.05
    endloop
  endfacet
  facet normal 0 0 -1
    outer loop
      vertex 239.734 80.4233 -0.05
      vertex -32.4918 -91.8862 -0.05
      vertex -33.024 -91.0396 -0.05
    endloop
  endfacet
  facet normal -0.532205 0.846615 0
    outer loop
      vertex 239.734 80.4233 -0.05
      vertex -33.024 -91.0396 0.05
      vertex 239.734 80.4233 0.05
    endloop
  endfacet
  facet normal -0.532205 0.846615 0
    outer loop
      vertex -33.024 -91.0396 0.05
      vertex 239.734 80.4233 -0.05
      vertex -33.024 -91.0396 -0.05
    endloop
  endfacet
  facet normal 0 0 1
    outer loop
      vertex 239.734 80.4233 0.05
      vertex -32.4918 -91.8862 0.05
      vertex 240.266 79.5767 0.05
    endloop
  endfacet
  facet normal 0 -0 1
    outer loop
      vertex -32.4918 -91.8862 0.05
      vertex 239.734 80.4233 0.05
      vertex -33.024 -91.0396 0.05
    endloop
  endfacet
endsolid OpenSCAD_Model
